{
copyright = "Copyright \U00A9 2014 by James Williamson. All rights reserved.";
date = "2014-02-03 04:18:01 +0000";
designer = "James Williamson";
designerURL = www.simpleprimate.com;
familyName = "Chunky Mobile";
featurePrefixes = (
{
automatic = 1;
code = "languagesystem DFLT dflt;\012";
name = Languagesystems;
}
);
fontMaster = (
{
ascender = 1536;
capHeight = 1536;
descender = "-512";
id = "CCC0E1AC-D470-4327-8277-0716FA3BBBFC";
xHeight = 1024;
}
);
glyphs = (
{
glyphname = uniE000;
lastChange = "2014-02-12 16:53:37 -0500";
layers = (
{
layerId = "CCC0E1AC-D470-4327-8277-0716FA3BBBFC";
name = Regular;
paths = (
{
closed = 1;
nodes = (
"128.583 640 LINE",
"380.544 640 LINE",
"380.544 -256 LINE",
"893.375 -256 LINE",
"893.375 256 LINE",
"1152.47 256 LINE",
"1152.47 -256 LINE",
"1660.54 -256 LINE",
"1660.54 640 LINE",
"1920 640 LINE",
"1021.73 1408 LINE"
);
}
);
width = 2048;
}
);
unicode = E000;
},
{
glyphname = uniE001;
lastChange = "2014-02-12 17:00:14 -0500";
layers = (
{
layerId = "CCC0E1AC-D470-4327-8277-0716FA3BBBFC";
name = Regular;
paths = (
{
closed = 1;
nodes = (
"1144 1408 OFFCURVE",
"984 1344 OFFCURVE",
"861.434 1226.38 CURVE SMOOTH",
"744 1104 OFFCURVE",
"680 944 OFFCURVE",
"680 784 CURVE SMOOTH",
"680 712 OFFCURVE",
"696 632 OFFCURVE",
"722.471 561.458 CURVE",
"248.544 87.5308 LINE",
"600.477 -264 LINE",
"1074.82 209.944 LINE",
"1144 184 OFFCURVE",
"1224 168 OFFCURVE",
"1296 168 CURVE SMOOTH",
"1456 168 OFFCURVE",
"1616 232 OFFCURVE",
"1738.38 349.434 CURVE SMOOTH",
"1856 472 OFFCURVE",
"1920 632 OFFCURVE",
"1920 784 CURVE SMOOTH",
"1920 944 OFFCURVE",
"1856 1104 OFFCURVE",
"1738.38 1226.38 CURVE SMOOTH",
"1616 1344 OFFCURVE",
"1456 1408 OFFCURVE",
"1296 1408 CURVE SMOOTH"
);
},
{
closed = 1;
nodes = (
"1416 1216 OFFCURVE",
"1520 1176 OFFCURVE",
"1604.72 1091.53 CURVE SMOOTH",
"1688 1008 OFFCURVE",
"1728 904 OFFCURVE",
"1728 792 CURVE SMOOTH",
"1728 680 OFFCURVE",
"1688 576 OFFCURVE",
"1604.72 493.018 CURVE SMOOTH",
"1520 408 OFFCURVE",
"1416 368 OFFCURVE",
"1304 368 CURVE SMOOTH",
"1200 368 OFFCURVE",
"1088 408 OFFCURVE",
"1006.2 493.018 CURVE SMOOTH",
"920 576 OFFCURVE",
"880 680 OFFCURVE",
"880 792 CURVE SMOOTH",
"880 904 OFFCURVE",
"920 1008 OFFCURVE",
"1006.2 1091.53 CURVE SMOOTH",
"1088 1176 OFFCURVE",
"1200 1216 OFFCURVE",
"1304 1216 CURVE SMOOTH"
);
}
);
width = 2048;
}
);
unicode = E001;
},
{
glyphname = uniE002;
lastChange = "2014-02-12 16:51:33 -0500";
layers = (
{
layerId = "CCC0E1AC-D470-4327-8277-0716FA3BBBFC";
name = Regular;
paths = (
{
closed = 1;
nodes = (
"256 1280 LINE",
"256 -128 LINE",
"1792 -128 LINE",
"1792 1280 LINE"
);
},
{
closed = 1;
nodes = (
"512 0 LINE",
"384 0 LINE",
"384 128 LINE",
"512 128 LINE"
);
},
{
closed = 1;
nodes = (
"512 256 LINE",
"384 256 LINE",
"384 384 LINE",
"512 384 LINE"
);
},
{
closed = 1;
nodes = (
"512 512 LINE",
"384 512 LINE",
"384 640 LINE",
"512 640 LINE"
);
},
{
closed = 1;
nodes = (
"512 768 LINE",
"384 768 LINE",
"384 896 LINE",
"512 896 LINE"
);
},
{
closed = 1;
nodes = (
"512 1024 LINE",
"384 1024 LINE",
"384 1152 LINE",
"512 1152 LINE"
);
},
{
closed = 1;
nodes = (
"1408 0 LINE",
"640 0 LINE",
"640 1152 LINE",
"1408 1152 LINE"
);
},
{
closed = 1;
nodes = (
"896 328 LINE",
"1280 544 LINE",
"896 768 LINE"
);
},
{
closed = 1;
nodes = (
"1664 0 LINE",
"1536 0 LINE",
"1536 128 LINE",
"1664 128 LINE"
);
},
{
closed = 1;
nodes = (
"1664 256 LINE",
"1536 256 LINE",
"1536 384 LINE",
"1664 384 LINE"
);
},
{
closed = 1;
nodes = (
"1664 512 LINE",
"1536 512 LINE",
"1536 640 LINE",
"1664 640 LINE"
);
},
{
closed = 1;
nodes = (
"1664 768 LINE",
"1536 768 LINE",
"1536 896 LINE",
"1664 896 LINE"
);
},
{
closed = 1;
nodes = (
"1664 1024 LINE",
"1536 1024 LINE",
"1536 1152 LINE",
"1664 1152 LINE"
);
}
);
width = 2048;
}
);
unicode = E002;
},
{
glyphname = uniE003;
lastChange = "2014-02-12 16:55:17 -0500";
layers = (
{
layerId = "CCC0E1AC-D470-4327-8277-0716FA3BBBFC";
name = Regular;
paths = (
{
closed = 1;
nodes = (
"1536 1280 LINE",
"1408 1280 LINE",
"1408 1152 LINE",
"1084.15 1152 LINE",
"1084.15 1280 LINE",
"956.149 1280 LINE",
"956.149 1152 LINE",
"640 1152 LINE",
"640 1280 LINE",
"512 1280 LINE",
"512 1152 LINE",
"256 1152 LINE",
"256 -256 LINE",
"1792 -256 LINE",
"1792 1152 LINE",
"1536 1152 LINE"
);
},
{
closed = 1;
nodes = (
"512 -128 LINE",
"512 128 LINE",
"768 128 LINE",
"768 -128 LINE"
);
},
{
closed = 1;
nodes = (
"512 255.999 LINE",
"512 512 LINE",
"768 512 LINE",
"768 255.999 LINE"
);
},
{
closed = 1;
nodes = (
"896 -128 LINE",
"896 128 LINE",
"1152 128 LINE",
"1152 -128 LINE"
);
},
{
closed = 1;
nodes = (
"896 255.999 LINE",
"896 512 LINE",
"1152 512 LINE",
"1152 255.999 LINE"
);
},
{
closed = 1;
nodes = (
"1280 -128 LINE",
"1280 128 LINE",
"1536 128 LINE",
"1536 -128 LINE"
);
},
{
closed = 1;
nodes = (
"1280 255.999 LINE",
"1280 512 LINE",
"1536 512 LINE",
"1536 255.999 LINE"
);
},
{
closed = 1;
nodes = (
"384 768 LINE",
"384 1024 LINE",
"512 1024 LINE",
"512 896 LINE",
"640 896 LINE",
"640 1024 LINE",
"956.149 1024 LINE",
"956.149 896 LINE",
"1084.15 896 LINE",
"1084.15 1024 LINE",
"1408 1024 LINE",
"1408 896 LINE",
"1536 896 LINE",
"1536 1024 LINE",
"1664 1024 LINE",
"1664 768 LINE"
);
}
);
width = 2048;
}
);
unicode = E003;
},
{
glyphname = uniE004;
lastChange = "2014-02-12 16:56:45 -0500";
layers = (
{
layerId = "CCC0E1AC-D470-4327-8277-0716FA3BBBFC";
name = Regular;
paths = (
{
closed = 1;
nodes = (
"640 1152 LINE",
"640 312 LINE",
"616 320 OFFCURVE",
"576 328 OFFCURVE",
"552 328 CURVE SMOOTH",
"424 328 OFFCURVE",
"328 224 OFFCURVE",
"328 96 CURVE SMOOTH",
"328 -24 OFFCURVE",
"424 -128 OFFCURVE",
"552 -128 CURVE SMOOTH",
"680 -128 OFFCURVE",
"768 -32 OFFCURVE",
"768 88 CURVE SMOOTH",
"768 768 LINE",
"1536 896 LINE",
"1536 448 LINE",
"1512 456 OFFCURVE",
"1464 456 OFFCURVE",
"1440 456 CURVE SMOOTH",
"1312 456 OFFCURVE",
"1208 352 OFFCURVE",
"1208 232 CURVE SMOOTH",
"1208 104 OFFCURVE",
"1312 0 OFFCURVE",
"1440 0 CURVE SMOOTH",
"1560 0 OFFCURVE",
"1664 104 OFFCURVE",
"1664 232 CURVE SMOOTH",
"1664 1280 LINE"
);
}
);
width = 2048;
}
);
unicode = E004;
},
{
glyphname = uniE005;
lastChange = "2014-02-12 16:56:24 -0500";
layers = (
{
layerId = "CCC0E1AC-D470-4327-8277-0716FA3BBBFC";
name = Regular;
paths = (
{
closed = 1;
nodes = (
"512 1280 LINE",
"512 1024 LINE",
"384 1024 LINE",
"384 896 LINE",
"512 896 LINE",
"512 640 LINE",
"384 640 LINE",
"384 512 LINE",
"512 512 LINE",
"512 256 LINE",
"384 256 LINE",
"384 128 LINE",
"512 128 LINE",
"512 -128 LINE",
"1664 -128 LINE",
"1664 1280 LINE"
);
},
{
closed = 1;
nodes = (
"896 0 LINE",
"640 0 LINE",
"640 128 LINE",
"768 128 LINE",
"768 256 LINE",
"640 256 LINE",
"640 512 LINE",
"768 512 LINE",
"768 640 LINE",
"640 640 LINE",
"640 896 LINE",
"768 896 LINE",
"768 1024 LINE",
"640 1024 LINE",
"640 1152 LINE",
"896 1152 LINE"
);
},
{
closed = 1;
nodes = (
"1536 128 LINE",
"1152 128 LINE",
"1152 256 LINE",
"1536 256 LINE"
);
},
{
closed = 1;
nodes = (
"1536 512 LINE",
"1152 512 LINE",
"1152 640 LINE",
"1536 640 LINE"
);
},
{
closed = 1;
nodes = (
"1536 896 LINE",
"1152 896 LINE",
"1152 1024 LINE",
"1536 1024 LINE"
);
}
);
width = 2048;
}
);
unicode = E005;
},
{
glyphname = uniE006;
lastChange = "2014-02-12 19:04:30 -0500";
layers = (
{
layerId = "CCC0E1AC-D470-4327-8277-0716FA3BBBFC";
name = Regular;
paths = (
{
closed = 1;
nodes = (
"880 1320 OFFCURVE",
"752 1256 OFFCURVE",
"680 1152 CURVE",
"256 1152 LINE",
"256 -256 LINE",
"1792 -256 LINE",
"1792 1152 LINE",
"1360 1152 LINE",
"1280 1256 OFFCURVE",
"1160 1320 OFFCURVE",
"1016 1320 CURVE SMOOTH"
);
},
{
closed = 1;
nodes = (
"720 -128 LINE",
"384 -128 LINE",
"384 224 LINE",
"720 224 LINE"
);
},
{
closed = 1;
nodes = (
"648 680 OFFCURVE",
"680 640 OFFCURVE",
"720 600 CURVE",
"720 288 LINE",
"384 288 LINE",
"384 736 LINE",
"632 736 LINE"
);
},
{
closed = 1;
nodes = (
"1488 -128 LINE",
"784 -128 LINE",
"784 224 LINE",
"928 224 LINE",
"984 104 OFFCURVE",
"1024 8 OFFCURVE",
"1024 8 CURVE SMOOTH",
"1024 8 OFFCURVE",
"1072 120 OFFCURVE",
"1128 264 CURVE",
"1240 296 LINE"
);
},
{
closed = 1;
nodes = (
"824 432 OFFCURVE",
"864 360 OFFCURVE",
"896 288 CURVE",
"784 288 LINE",
"784 504 LINE"
);
},
{
closed = 1;
nodes = (
"583 941 OFFCURVE",
"588 882 OFFCURVE",
"608 800 CURVE",
"384 800 LINE",
"384 1024 LINE",
"616 1024 LINE"
);
},
{
closed = 1;
nodes = (
"1664 -128 LINE",
"1568 -128 LINE",
"1304 320 LINE",
"1664 448 LINE"
);
},
{
closed = 1;
nodes = (
"1160 1192 OFFCURVE",
"1280 1072 OFFCURVE",
"1280 928 CURVE SMOOTH",
"1280 776 OFFCURVE",
"1160 656 OFFCURVE",
"1008 656 CURVE SMOOTH",
"864 656 OFFCURVE",
"744 776 OFFCURVE",
"744 928 CURVE SMOOTH",
"744 1072 OFFCURVE",
"864 1192 OFFCURVE",
"1008 1192 CURVE SMOOTH"
);
},
{
closed = 1;
nodes = (
"931 1064 OFFCURVE",
"872 1000 OFFCURVE",
"872 928 CURVE SMOOTH",
"872 849 OFFCURVE",
"929 784 OFFCURVE",
"1008 784 CURVE SMOOTH",
"1083 784 OFFCURVE",
"1152 853 OFFCURVE",
"1152 928 CURVE SMOOTH",
"1152 998 OFFCURVE",
"1083 1064 OFFCURVE",
"1008 1064 CURVE SMOOTH"
);
},
{
closed = 1;
nodes = (
"1664 520 LINE",
"1168 344 LINE",
"1208 424 OFFCURVE",
"1256 512 OFFCURVE",
"1296 584 CURVE",
"1344 624 OFFCURVE",
"1384 672 OFFCURVE",
"1408 736 CURVE",
"1664 736 LINE"
);
},
{
closed = 1;
nodes = (
"1664 800 LINE",
"1432 800 LINE",
"1449 867 OFFCURVE",
"1439 951 OFFCURVE",
"1424 1024 CURVE",
"1664 1024 LINE"
);
}
);
width = 2048;
}
);
unicode = E006;
},
{
glyphname = uniE007;
lastChange = "2014-02-12 19:01:36 -0500";
layers = (
{
layerId = "CCC0E1AC-D470-4327-8277-0716FA3BBBFC";
name = Regular;
paths = (
{
closed = 1;
nodes = (
"896 1152 LINE",
"768 904 LINE",
"256 904 LINE",
"256 -128 LINE",
"1784 -128 LINE",
"1784 904 LINE",
"1536 904 LINE",
"1408 1152 LINE"
);
},
{
closed = 1;
nodes = (
"640 640 LINE",
"384 640 LINE",
"384 768 LINE",
"640 768 LINE"
);
},
{
closed = 1;
nodes = (
"1003 640 OFFCURVE",
"896 533 OFFCURVE",
"896 384 CURVE SMOOTH",
"896 235 OFFCURVE",
"1003 128 OFFCURVE",
"1152 128 CURVE SMOOTH",
"1301 128 OFFCURVE",
"1408 235 OFFCURVE",
"1408 384 CURVE SMOOTH",
"1408 533 OFFCURVE",
"1301 640 OFFCURVE",
"1152 640 CURVE SMOOTH"
);
},
{
closed = 1;
nodes = (
"1368 768 OFFCURVE",
"1536 600 OFFCURVE",
"1536 384 CURVE SMOOTH",
"1536 168 OFFCURVE",
"1368 0 OFFCURVE",
"1152 0 CURVE SMOOTH",
"936 0 OFFCURVE",
"768 168 OFFCURVE",
"768 384 CURVE SMOOTH",
"768 600 OFFCURVE",
"936 768 OFFCURVE",
"1152 768 CURVE SMOOTH"
);
}
);
width = 2048;
}
);
unicode = E007;
},
{
glyphname = uniE008;
lastChange = "2014-02-12 19:01:06 -0500";
layers = (
{
layerId = "CCC0E1AC-D470-4327-8277-0716FA3BBBFC";
name = Regular;
paths = (
{
closed = 1;
nodes = (
"637 1279 OFFCURVE",
"512 1112 OFFCURVE",
"512.42 896 CURVE SMOOTH",
"512.42 256 LINE SMOOTH",
"512 -29 OFFCURVE",
"694 -257 OFFCURVE",
"960.32 -257 CURVE SMOOTH",
"1221 -257 OFFCURVE",
"1408 -35 OFFCURVE",
"1408.47 256 CURVE SMOOTH",
"1408.47 896 LINE",
"1280.47 896 LINE",
"1280.47 256 LINE SMOOTH",
"1280.47 -7 OFFCURVE",
"1114.58 -127 OFFCURVE",
"960.445 -127 CURVE SMOOTH",
"806.312 -127 OFFCURVE",
"640.42 -7 OFFCURVE",
"640.42 256 CURVE SMOOTH",
"640.42 896 LINE SMOOTH",
"640.42 1072.16 OFFCURVE",
"734.904 1151.01 OFFCURVE",
"828.542 1151.01 CURVE SMOOTH",
"922.855 1151.01 OFFCURVE",
"1024.36 1071.21 OFFCURVE",
"1024.36 896 CURVE SMOOTH",
"1024.36 256 LINE SMOOTH",
"1024 188 OFFCURVE",
"1026 122 OFFCURVE",
"960.69 121.283 CURVE SMOOTH",
"897 121 OFFCURVE",
"897 186 OFFCURVE",
"897.019 256 CURVE SMOOTH",
"897.019 640 LINE",
"769.019 640 LINE",
"769.019 256 LINE SMOOTH",
"769 123 OFFCURVE",
"834 -7 OFFCURVE",
"960.69 -7 CURVE SMOOTH",
"1081 -7 OFFCURVE",
"1152 117 OFFCURVE",
"1152.36 256 CURVE SMOOTH",
"1152.36 896 LINE SMOOTH",
"1152 1107 OFFCURVE",
"1023 1279 OFFCURVE",
"828.542 1279.01 CURVE SMOOTH"
);
}
);
width = 2048;
}
);
unicode = E008;
},
{
glyphname = uniE009;
lastChange = "2014-02-12 16:56:33 -0500";
layers = (
{
layerId = "CCC0E1AC-D470-4327-8277-0716FA3BBBFC";
name = Regular;
paths = (
{
closed = 1;
nodes = (
"555.449 175.061 LINE",
"651.313 79.1963 LINE",
"1246.06 673.941 LINE",
"1313.94 606.059 LINE",
"719.196 11.3135 LINE",
"812.174 -82 LINE",
"1536 640 LINE",
"1280 896 LINE"
);
},
{
closed = 1;
nodes = (
"384 -256 LINE",
"699.535 -150 LINE",
"487.871 61.6196 LINE"
);
},
{
closed = 1;
nodes = (
"1408.42 1026.11 LINE",
"1657.67 761.819 LINE",
"1793.03 897.186 LINE",
"1795.18 1017.51 OFFCURVE",
"1664 1152 OFFCURVE",
"1536 1152 CURVE"
);
}
);
width = 2048;
}
);
unicode = E009;
},
{
glyphname = uniE010;
lastChange = "2014-02-12 16:52:21 -0500";
layers = (
{
layerId = "CCC0E1AC-D470-4327-8277-0716FA3BBBFC";
name = Regular;
paths = (
{
closed = 1;
nodes = (
"1408 768 LINE",
"1408 467.321 LINE SMOOTH",
"1408 411.495 OFFCURVE",
"1384.13 359.011 OFFCURVE",
"1344.66 319.536 CURVE SMOOTH",
"1305.18 280.061 OFFCURVE",
"1252.7 258.321 OFFCURVE",
"1196.87 258.321 CURVE SMOOTH",
"847.768 258.321 LINE SMOOTH",
"791.942 258.321 OFFCURVE",
"739.458 280.061 OFFCURVE",
"699.982 319.536 CURVE SMOOTH",
"660.508 359.011 OFFCURVE",
"638.768 411.495 OFFCURVE",
"638.768 467.321 CURVE SMOOTH",
"640 768 LINE",
"384 768 LINE",
"384 638.013 LINE",
"510.768 638.013 LINE",
"510.768 467.321 LINE SMOOTH",
"510.768 281.201 OFFCURVE",
"661.648 128 OFFCURVE",
"847.768 128 CURVE SMOOTH",
"896 128 LINE",
"896 -130 LINE",
"768 -130 LINE",
"768 -258 LINE",
"1280 -258 LINE",
"1280 -130 LINE",
"1152 -130 LINE",
"1152 128 LINE",
"1196.87 128 LINE SMOOTH",
"1382.99 128 OFFCURVE",
"1533.87 281.201 OFFCURVE",
"1533.87 467.321 CURVE SMOOTH",
"1533.87 638.013 LINE",
"1664 638.013 LINE",
"1664 768 LINE"
);
},
{
closed = 1;
nodes = (
"882.615 1280 OFFCURVE",
"768 1165.38 OFFCURVE",
"768 1024 CURVE SMOOTH",
"768 640 LINE SMOOTH",
"768 498.615 OFFCURVE",
"882.615 384 OFFCURVE",
"1024 384 CURVE SMOOTH",
"1165.38 384 OFFCURVE",
"1280 498.615 OFFCURVE",
"1280 640 CURVE SMOOTH",
"1280 1024 LINE SMOOTH",
"1280 1165.38 OFFCURVE",
"1165.38 1280 OFFCURVE",
"1024 1280 CURVE SMOOTH"
);
}
);
width = 2048;
}
);
unicode = E010;
},
{
glyphname = uniE011;
lastChange = "2014-02-12 16:48:49 -0500";
layers = (
{
layerId = "CCC0E1AC-D470-4327-8277-0716FA3BBBFC";
name = Regular;
paths = (
{
closed = 1;
nodes = (
"1012.75 1071.24 LINE SMOOTH",
"590.966 1069.06 OFFCURVE",
"393.905 969.714 OFFCURVE",
"263.621 848.146 CURVE",
"179.212 761.748 OFFCURVE",
"116.058 681.544 OFFCURVE",
"139.857 630.556 CURVE",
"221.435 535.377 OFFCURVE",
"653.137 572.769 OFFCURVE",
"666.121 630.556 CURVE",
"666.121 630.556 OFFCURVE",
"675.625 645.004 OFFCURVE",
"682.09 652.556 CURVE SMOOTH",
"752.623 734.909 OFFCURVE",
"879.096 736.272 OFFCURVE",
"1019.72 736.272 CURVE SMOOTH",
"1160.35 736.272 OFFCURVE",
"1286.83 734.909 OFFCURVE",
"1357.36 652.556 CURVE SMOOTH",
"1363.82 645.004 OFFCURVE",
"1366.56 643.948 OFFCURVE",
"1373.33 630.556 CURVE SMOOTH",
"1414.57 548.974 OFFCURVE",
"1842.87 528.579 OFFCURVE",
"1899.6 630.556 CURVE SMOOTH",
"1913.9 656.277 OFFCURVE",
"1860.24 761.748 OFFCURVE",
"1775.83 848.146 CURVE",
"1645.54 969.714 OFFCURVE",
"1448.48 1069.06 OFFCURVE",
"1026.7 1071.19 CURVE SMOOTH"
);
},
{
closed = 1;
nodes = (
"554.56 402.807 OFFCURVE",
"218.035 402.807 OFFCURVE",
"126.256 487.788 CURVE",
"129.655 181.856 LINE",
"190.841 127.469 OFFCURVE",
"513.769 93.4766 OFFCURVE",
"723.961 189.838 CURVE",
"723.961 498.172 LINE"
);
},
{
closed = 1;
nodes = (
"1322.79 183.04 LINE",
"1532.98 86.6782 OFFCURVE",
"1855.91 120.67 OFFCURVE",
"1917.09 175.058 CURVE",
"1920.49 480.99 LINE",
"1828.71 396.009 OFFCURVE",
"1492.19 396.009 OFFCURVE",
"1322.79 491.373 CURVE"
);
}
);
width = 2048;
}
);
unicode = E011;
},
{
glyphname = uniE012;
lastChange = "2014-02-12 16:53:24 -0500";
layers = (
{
layerId = "CCC0E1AC-D470-4327-8277-0716FA3BBBFC";
name = Regular;
paths = (
{
closed = 1;
nodes = (
"384 639.995 LINE",
"384 383.995 LINE",
"1664 383.995 LINE",
"1664 639.995 LINE"
);
},
{
closed = 1;
nodes = (
"384 127.995 LINE",
"384 -128 LINE",
"1664 -128 LINE",
"1664 127.995 LINE"
);
},
{
closed = 1;
nodes = (
"384 1151.99 LINE",
"384 895.995 LINE",
"1664 895.995 LINE",
"1664 1151.99 LINE"
);
}
);
width = 2048;
}
);
unicode = E012;
},
{
glyphname = uniE013;
lastChange = "2014-02-12 16:48:53 -0500";
layers = (
{
layerId = "CCC0E1AC-D470-4327-8277-0716FA3BBBFC";
name = Regular;
paths = (
{
closed = 1;
nodes = (
"896 1279.92 LINE",
"896 1151.92 LINE",
"384 1151.92 LINE",
"384 895.917 LINE",
"512 895.917 LINE",
"640 -128 LINE",
"1408 -128 LINE",
"1536 895.917 LINE",
"1664 895.917 LINE",
"1664 1151.92 LINE",
"1152 1151.92 LINE",
"1152 1279.92 LINE"
);
},
{
closed = 1;
nodes = (
"835.106 0 LINE",
"738.319 0 LINE",
"639.771 767.917 LINE",
"736.557 767.917 LINE"
);
},
{
closed = 1;
nodes = (
"1072 0 LINE",
"976 0 LINE",
"976 767.917 LINE",
"1072 767.917 LINE"
);
},
{
closed = 1;
nodes = (
"1305.68 0 LINE",
"1208.89 0 LINE",
"1307.44 767.917 LINE",
"1404.23 767.917 LINE"
);
}
);
width = 2048;
}
);
unicode = E013;
},
{
glyphname = uniE014;
lastChange = "2014-02-12 16:56:56 -0500";
layers = (
{
layerId = "CCC0E1AC-D470-4327-8277-0716FA3BBBFC";
name = Regular;
paths = (
{
closed = 1;
nodes = (
"1024 306.72 LINE",
"256 768 LINE",
"256 -128 LINE",
"1792 -128 LINE",
"1792 768 LINE"
);
},
{
closed = 1;
nodes = (
"256 1024 LINE",
"256 896 LINE",
"1024 454.145 LINE",
"1792 896 LINE",
"1792 1024 LINE"
);
}
);
width = 2048;
}
);
unicode = E014;
},
{
glyphname = uniE015;
lastChange = "2014-02-12 16:53:56 -0500";
layers = (
{
layerId = "CCC0E1AC-D470-4327-8277-0716FA3BBBFC";
name = Regular;
paths = (
{
closed = 1;
nodes = (
"1024 306.72 LINE",
"256 768 LINE",
"256 -128 LINE",
"1792 -128 LINE",
"1792 768 LINE"
);
},
{
closed = 1;
nodes = (
"1536 256 LINE",
"1664 256 LINE",
"1664 128 LINE",
"1536 128 LINE",
"1535.87 0 LINE",
"1407.87 0 LINE",
"1408 128 LINE",
"1280 128 LINE",
"1280 256 LINE",
"1408 256 LINE",
"1408 384 LINE",
"1536 384 LINE"
);
},
{
closed = 1;
nodes = (
"256 1024 LINE",
"256 896 LINE",
"1024 454.145 LINE",
"1792 896 LINE",
"1792 1024 LINE"
);
}
);
width = 2048;
}
);
unicode = E015;
},
{
glyphname = uniE016;
lastChange = "2014-02-12 16:51:18 -0500";
layers = (
{
layerId = "CCC0E1AC-D470-4327-8277-0716FA3BBBFC";
name = Regular;
paths = (
{
closed = 1;
nodes = (
"512 1024 LINE",
"512 896 LINE",
"384 896 LINE",
"384 -128 LINE",
"1536 -128 LINE",
"1536 170.667 LINE",
"1792 0 LINE",
"1792 640 LINE",
"1536 469.333 LINE",
"1536 896 LINE",
"1024 896 LINE",
"896 1024 LINE"
);
},
{
closed = 1;
nodes = (
"1280 418.297 LINE",
"896 196.594 LINE",
"896 640 LINE"
);
}
);
width = 2048;
}
);
unicode = E016;
},
{
glyphname = uniE017;
lastChange = "2014-02-12 16:55:35 -0500";
layers = (
{
layerId = "CCC0E1AC-D470-4327-8277-0716FA3BBBFC";
name = Regular;
paths = (
{
closed = 1;
nodes = (
"670.537 1152 OFFCURVE",
"384 865.462 OFFCURVE",
"384 512 CURVE SMOOTH",
"384 158.538 OFFCURVE",
"670.537 -128 OFFCURVE",
"1024 -128 CURVE SMOOTH",
"1377.46 -128 OFFCURVE",
"1664 158.538 OFFCURVE",
"1664 512 CURVE SMOOTH",
"1664 865.462 OFFCURVE",
"1377.46 1152 OFFCURVE",
"1024 1152 CURVE SMOOTH"
);
},
{
closed = 1;
nodes = (
"1306.77 1024 OFFCURVE",
"1536 794.769 OFFCURVE",
"1536 512 CURVE SMOOTH",
"1536 229.23 OFFCURVE",
"1306.77 0 OFFCURVE",
"1024 0 CURVE SMOOTH",
"741.231 0 OFFCURVE",
"512 229.23 OFFCURVE",
"512 512 CURVE SMOOTH",
"512 794.769 OFFCURVE",
"741.231 1024 OFFCURVE",
"1024 1024 CURVE SMOOTH"
);
},
{
closed = 1;
nodes = (
"896 826.656 LINE",
"896 442.656 LINE",
"1113.77 256 LINE",
"1197.07 353.185 LINE",
"1024 501.527 LINE",
"1024 826.656 LINE"
);
}
);
width = 2048;
}
);
unicode = E017;
},
{
glyphname = uniE018;
lastChange = "2014-02-12 19:02:02 -0500";
layers = (
{
layerId = "CCC0E1AC-D470-4327-8277-0716FA3BBBFC";
name = Regular;
paths = (
{
closed = 1;
nodes = (
"670.537 1024 OFFCURVE",
"384 737.462 OFFCURVE",
"384 384 CURVE SMOOTH",
"384 30.538 OFFCURVE",
"670.537 -256 OFFCURVE",
"1024 -256 CURVE SMOOTH",
"1377.46 -256 OFFCURVE",
"1664 30.538 OFFCURVE",
"1664 384 CURVE SMOOTH",
"1664 737.462 OFFCURVE",
"1377.46 1024 OFFCURVE",
"1024 1024 CURVE SMOOTH"
);
},
{
closed = 1;
nodes = (
"1306.77 896 OFFCURVE",
"1536 666.769 OFFCURVE",
"1536 384 CURVE SMOOTH",
"1536 101.23 OFFCURVE",
"1306.77 -128 OFFCURVE",
"1024 -128 CURVE SMOOTH",
"741.231 -128 OFFCURVE",
"512 101.23 OFFCURVE",
"512 384 CURVE SMOOTH",
"512 666.769 OFFCURVE",
"741.231 896 OFFCURVE",
"1024 896 CURVE SMOOTH"
);
},
{
closed = 1;
nodes = (
"896 698.656 LINE",
"896 314.656 LINE",
"1113.77 128 LINE",
"1197.07 225.185 LINE",
"1024 373.527 LINE",
"1024 698.656 LINE"
);
},
{
closed = 1;
nodes = (
"498.615 1152 OFFCURVE",
"384 1037.38 OFFCURVE",
"384 896 CURVE SMOOTH",
"384 844.137 OFFCURVE",
"399.438 795.887 OFFCURVE",
"425.946 755.565 CURVE",
"440.27 777.658 LINE",
"531 927 OFFCURVE",
"671 1024 OFFCURVE",
"834.652 1062.26 CURVE",
"787.699 1117.18 OFFCURVE",
"717.92 1152 OFFCURVE",
"640 1152 CURVE SMOOTH"
);
},
{
closed = 1;
nodes = (
"1330.08 1152 OFFCURVE",
"1260.3 1117.18 OFFCURVE",
"1213.35 1062.26 CURVE",
"1399 1012 OFFCURVE",
"1525 899 OFFCURVE",
"1622.05 755.565 CURVE",
"1648.56 795.887 OFFCURVE",
"1664 844.137 OFFCURVE",
"1664 896 CURVE SMOOTH",
"1664 1037.38 OFFCURVE",
"1549.38 1152 OFFCURVE",
"1408 1152 CURVE SMOOTH"
);
}
);
width = 2048;
}
);
unicode = E018;
},
{
glyphname = uniE019;
lastChange = "2014-02-12 16:53:29 -0500";
layers = (
{
layerId = "CCC0E1AC-D470-4327-8277-0716FA3BBBFC";
name = Regular;
paths = (
{
closed = 1;
nodes = (
"599.846 1280 OFFCURVE",
"256 936.155 OFFCURVE",
"256 512 CURVE SMOOTH",
"256 87.8457 OFFCURVE",
"599.846 -256 OFFCURVE",
"1024 -256 CURVE SMOOTH",
"1448.15 -256 OFFCURVE",
"1792 87.8457 OFFCURVE",
"1792 512 CURVE SMOOTH",
"1792 936.155 OFFCURVE",
"1448.15 1280 OFFCURVE",
"1024 1280 CURVE SMOOTH"
);
},
{
closed = 1;
nodes = (
"1142.83 0 LINE",
"886.832 0 LINE",
"886.832 640 LINE",
"1142.83 640 LINE"
);
},
{
closed = 1;
nodes = (
"1142.83 768 LINE",
"886.832 768 LINE",
"886.832 1024 LINE",
"1142.83 1024 LINE"
);
}
);
width = 2048;
}
);
unicode = E019;
},
{
glyphname = uniE020;
lastChange = "2014-02-12 16:53:01 -0500";
layers = (
{
layerId = "CCC0E1AC-D470-4327-8277-0716FA3BBBFC";
name = Regular;
paths = (
{
closed = 1;
nodes = (
"600 1280 OFFCURVE",
"256 936 OFFCURVE",
"256 512 CURVE SMOOTH",
"256 88 OFFCURVE",
"600 -256 OFFCURVE",
"1024 -256 CURVE SMOOTH",
"1448 -256 OFFCURVE",
"1792 88 OFFCURVE",
"1792 512 CURVE SMOOTH",
"1792 936 OFFCURVE",
"1448 1280 OFFCURVE",
"1024 1280 CURVE SMOOTH"
);
},
{
closed = 1;
nodes = (
"1120 -72 LINE",
"872 -72 LINE",
"872 184 LINE",
"1120 184 LINE"
);
},
{
closed = 1;
nodes = (
"1128 1080 OFFCURVE",
"1176 1072 OFFCURVE",
"1216 1056 CURVE SMOOTH",
"1256 1040 OFFCURVE",
"1296 1008 OFFCURVE",
"1328 976 CURVE SMOOTH",
"1360 944 OFFCURVE",
"1384 912 OFFCURVE",
"1400 872 CURVE SMOOTH",
"1416 824 OFFCURVE",
"1424 784 OFFCURVE",
"1424 736 CURVE SMOOTH",
"1424 688 OFFCURVE",
"1416 648 OFFCURVE",
"1400 616 CURVE SMOOTH",
"1392 584 OFFCURVE",
"1368 552 OFFCURVE",
"1344 528 CURVE SMOOTH",
"1328 504 OFFCURVE",
"1304 480 OFFCURVE",
"1272 464 CURVE SMOOTH",
"1248 440 OFFCURVE",
"1224 424 OFFCURVE",
"1200 416 CURVE",
"1184 400 OFFCURVE",
"1176 392 OFFCURVE",
"1160 392 CURVE SMOOTH",
"1144 384 OFFCURVE",
"1136 376 OFFCURVE",
"1128 360 CURVE SMOOTH",
"1128 344 LINE",
"1120 328 LINE",
"1120 304 LINE",
"872 304 LINE",
"872 352 LINE SMOOTH",
"872 392 OFFCURVE",
"880 424 OFFCURVE",
"888 448 CURVE SMOOTH",
"904 480 OFFCURVE",
"920 504 OFFCURVE",
"944 528 CURVE SMOOTH",
"960 544 OFFCURVE",
"984 568 OFFCURVE",
"1008 584 CURVE SMOOTH",
"1032 600 OFFCURVE",
"1048 608 OFFCURVE",
"1072 624 CURVE SMOOTH",
"1088 640 OFFCURVE",
"1104 648 OFFCURVE",
"1120 656 CURVE SMOOTH",
"1136 664 OFFCURVE",
"1144 680 OFFCURVE",
"1152 688 CURVE SMOOTH",
"1160 696 OFFCURVE",
"1168 704 OFFCURVE",
"1168 712 CURVE SMOOTH",
"1176 720 OFFCURVE",
"1176 728 OFFCURVE",
"1176 736 CURVE SMOOTH",
"1176 760 OFFCURVE",
"1168 784 OFFCURVE",
"1144 800 CURVE SMOOTH",
"1128 824 OFFCURVE",
"1104 832 OFFCURVE",
"1080 832 CURVE SMOOTH",
"1048 832 OFFCURVE",
"1024 824 OFFCURVE",
"1000 800 CURVE SMOOTH",
"984 784 OFFCURVE",
"968 760 OFFCURVE",
"968 736 CURVE",
"720 736 LINE",
"720 784 OFFCURVE",
"728 824 OFFCURVE",
"752 872 CURVE SMOOTH",
"768 912 OFFCURVE",
"792 944 OFFCURVE",
"824 976 CURVE SMOOTH",
"856 1008 OFFCURVE",
"896 1040 OFFCURVE",
"936 1056 CURVE SMOOTH",
"984 1072 OFFCURVE",
"1032 1080 OFFCURVE",
"1080 1080 CURVE SMOOTH"
);
}
);
width = 2048;
}
);
unicode = E020;
},
{
glyphname = uniE021;
lastChange = "2014-02-12 16:48:01 -0500";
layers = (
{
layerId = "CCC0E1AC-D470-4327-8277-0716FA3BBBFC";
name = Regular;
paths = (
{
closed = 1;
nodes = (
"599.846 1280 OFFCURVE",
"256 936.155 OFFCURVE",
"256 512 CURVE SMOOTH",
"256 87.8452 OFFCURVE",
"599.846 -256 OFFCURVE",
"1024 -256 CURVE SMOOTH",
"1448.15 -256 OFFCURVE",
"1792 87.8452 OFFCURVE",
"1792 512 CURVE SMOOTH",
"1792 936.155 OFFCURVE",
"1448.15 1280 OFFCURVE",
"1024 1280 CURVE SMOOTH"
);
},
{
closed = 1;
nodes = (
"1543.65 749.245 LINE",
"909.431 115.003 LINE",
"534.149 490.253 LINE",
"678.28 634.383 LINE",
"909.431 403.258 LINE",
"1399.52 893.377 LINE"
);
}
);
width = 2048;
}
);
unicode = E021;
},
{
glyphname = uniE022;
lastChange = "2014-02-12 16:52:12 -0500";
layers = (
{
layerId = "CCC0E1AC-D470-4327-8277-0716FA3BBBFC";
name = Regular;
paths = (
{
closed = 1;
nodes = (
"599.846 1280 OFFCURVE",
"256 936.155 OFFCURVE",
"256 512 CURVE SMOOTH",
"256 87.8452 OFFCURVE",
"599.846 -256 OFFCURVE",
"1024 -256 CURVE SMOOTH",
"1448.15 -256 OFFCURVE",
"1792 87.8452 OFFCURVE",
"1792 512 CURVE SMOOTH",
"1792 936.155 OFFCURVE",
"1448.15 1280 OFFCURVE",
"1024 1280 CURVE SMOOTH"
);
},
{
closed = 1;
nodes = (
"1273.57 789.868 LINE",
"1002.04 518.339 LINE",
"1273.57 246.811 LINE",
"1092.55 65.7915 LINE",
"821.019 337.32 LINE",
"640 518.339 LINE",
"821.019 699.359 LINE",
"1092.55 970.887 LINE"
);
}
);
width = 2048;
}
);
unicode = E022;
},
{
glyphname = uniE023;
lastChange = "2014-02-12 16:56:29 -0500";
layers = (
{
layerId = "CCC0E1AC-D470-4327-8277-0716FA3BBBFC";
name = Regular;
paths = (
{
closed = 1;
nodes = (
"599.846 1280 OFFCURVE",
"256 936.155 OFFCURVE",
"256 512 CURVE SMOOTH",
"256 87.8452 OFFCURVE",
"599.846 -256 OFFCURVE",
"1024 -256 CURVE SMOOTH",
"1448.15 -256 OFFCURVE",
"1792 87.8452 OFFCURVE",
"1792 512 CURVE SMOOTH",
"1792 936.155 OFFCURVE",
"1448.15 1280 OFFCURVE",
"1024 1280 CURVE SMOOTH"
);
},
{
closed = 1;
nodes = (
"1220.55 699.359 LINE",
"1401.57 518.339 LINE",
"1220.55 337.32 LINE",
"949.019 65.7915 LINE",
"768 246.811 LINE",
"1039.53 518.339 LINE",
"768 789.868 LINE",
"949.019 970.887 LINE"
);
}
);
width = 2048;
}
);
unicode = E023;
},
{
glyphname = uniE024;
lastChange = "2014-02-12 16:48:26 -0500";
layers = (
{
layerId = "CCC0E1AC-D470-4327-8277-0716FA3BBBFC";
name = Regular;
paths = (
{
closed = 1;
nodes = (
"599.846 1280 OFFCURVE",
"256 936.155 OFFCURVE",
"256 512 CURVE SMOOTH",
"256 87.8452 OFFCURVE",
"599.846 -256 OFFCURVE",
"1024 -256 CURVE SMOOTH",
"1448.15 -256 OFFCURVE",
"1792 87.8452 OFFCURVE",
"1792 512 CURVE SMOOTH",
"1792 936.155 OFFCURVE",
"1448.15 1280 OFFCURVE",
"1024 1280 CURVE SMOOTH"
);
},
{
closed = 1;
nodes = (
"1536.5 384 LINE",
"512.5 384 LINE",
"512.5 640 LINE",
"1536.5 640 LINE"
);
}
);
width = 2048;
}
);
unicode = E024;
},
{
glyphname = uniE025;
lastChange = "2014-02-12 16:43:21 -0500";
layers = (
{
layerId = "CCC0E1AC-D470-4327-8277-0716FA3BBBFC";
name = Regular;
paths = (
{
closed = 1;
nodes = (
"599.846 1280 OFFCURVE",
"256 936.155 OFFCURVE",
"256 512 CURVE SMOOTH",
"256 87.8452 OFFCURVE",
"599.846 -256 OFFCURVE",
"1024 -256 CURVE SMOOTH",
"1448.15 -256 OFFCURVE",
"1792 87.8452 OFFCURVE",
"1792 512 CURVE SMOOTH",
"1792 936.155 OFFCURVE",
"1448.15 1280 OFFCURVE",
"1024 1280 CURVE SMOOTH"
);
},
{
closed = 1;
nodes = (
"1150 639 LINE",
"1534 639 LINE",
"1534 387 LINE",
"1150 387 LINE",
"1150 3 LINE",
"898 3 LINE",
"898 387 LINE",
"514 387 LINE",
"514.002 639 LINE",
"898 639.002 LINE",
"898 1023 LINE",
"1150 1023 LINE"
);
}
);
width = 2048;
}
);
unicode = E025;
},
{
glyphname = uniE026;
lastChange = "2014-02-12 16:55:51 -0500";
layers = (
{
layerId = "CCC0E1AC-D470-4327-8277-0716FA3BBBFC";
name = Regular;
paths = (
{
closed = 1;
nodes = (
"599.846 1280 OFFCURVE",
"256 936.155 OFFCURVE",
"256 512 CURVE SMOOTH",
"256 87.8452 OFFCURVE",
"599.846 -256 OFFCURVE",
"1024 -256 CURVE SMOOTH",
"1448.15 -256 OFFCURVE",
"1792 87.8452 OFFCURVE",
"1792 512 CURVE SMOOTH",
"1792 936.155 OFFCURVE",
"1448.15 1280 OFFCURVE",
"1024 1280 CURVE SMOOTH"
);
},
{
closed = 1;
nodes = (
"1473.72 784.53 LINE",
"1202.19 513 LINE",
"1473.72 241.472 LINE",
"1295.53 63.2808 LINE",
"1024 334.81 LINE",
"752.471 63.2813 LINE",
"574.281 241.473 LINE",
"845.809 513 LINE",
"574.281 784.53 LINE",
"752.471 962.721 LINE",
"1024 691.192 LINE",
"1295.53 962.721 LINE"
);
}
);
width = 2048;
}
);
unicode = E026;
},
{
glyphname = uniE027;
lastChange = "2014-02-12 16:53:33 -0500";
layers = (
{
layerId = "CCC0E1AC-D470-4327-8277-0716FA3BBBFC";
name = Regular;
paths = (
{
closed = 1;
nodes = (
"256 512 LINE",
"1024.54 -253 LINE",
"1278.17 4.48535 LINE",
"1024 256 LINE",
"1792 255.977 LINE",
"1792 770.599 LINE",
"1024 770.599 LINE",
"1280.13 1024 LINE",
"1024 1280 LINE"
);
}
);
width = 2048;
}
);
unicode = E027;
},
{
glyphname = uniE028;
lastChange = "2014-02-12 16:49:03 -0500";
layers = (
{
layerId = "CCC0E1AC-D470-4327-8277-0716FA3BBBFC";
name = Regular;
paths = (
{
closed = 1;
nodes = (
"769.835 1022.11 LINE",
"1024 770.599 LINE",
"256 770.623 LINE",
"256 258.599 LINE",
"1024 258.599 LINE",
"767.868 2.59863 LINE",
"1024 -253 LINE",
"1792 514.599 LINE",
"1023.46 1280 LINE"
);
}
);
width = 2048;
}
);
unicode = E028;
},
{
glyphname = uniE029;
lastChange = "2014-02-12 16:56:12 -0500";
layers = (
{
layerId = "CCC0E1AC-D470-4327-8277-0716FA3BBBFC";
name = Regular;
paths = (
{
closed = 1;
nodes = (
"769.3 1278.7 LINE",
"769.3 510.701 LINE",
"514.599 768.132 LINE",
"258.6 512 LINE",
"1026.6 -256 LINE",
"1792 512.541 LINE",
"1534.11 766.165 LINE",
"1281.3 510.701 LINE",
"1281.3 1278.7 LINE"
);
}
);
width = 2048;
}
);
unicode = E029;
},
{
glyphname = uniE030;
lastChange = "2014-02-12 16:51:29 -0500";
layers = (
{
layerId = "CCC0E1AC-D470-4327-8277-0716FA3BBBFC";
name = Regular;
paths = (
{
closed = 1;
nodes = (
"256 510.16 LINE",
"513.886 256.536 LINE",
"766.7 512 LINE",
"766.7 -256 LINE",
"1278.7 -256 LINE",
"1278.7 512 LINE",
"1533.4 254.569 LINE",
"1789.4 510.701 LINE",
"1021.4 1278.7 LINE"
);
}
);
width = 2048;
}
);
unicode = E030;
},
{
glyphname = uniE031;
lastChange = "2014-02-12 16:49:31 -0500";
layers = (
{
layerId = "CCC0E1AC-D470-4327-8277-0716FA3BBBFC";
name = Regular;
paths = (
{
closed = 1;
nodes = (
"808.644 768.264 LINE",
"121.787 768.264 LINE",
"677.466 364.539 LINE",
"465.216 -289 LINE",
"1020.89 115.024 LINE",
"1576.57 -289 LINE",
"1364.32 364.539 LINE",
"1920 768.264 LINE",
"1233.14 768.264 LINE",
"1020.89 1421.5 LINE"
);
}
);
width = 2048;
}
);
unicode = E031;
},
{
glyphname = uniE032;
lastChange = "2014-02-12 16:48:40 -0500";
layers = (
{
layerId = "CCC0E1AC-D470-4327-8277-0716FA3BBBFC";
name = Regular;
paths = (
{
closed = 1;
nodes = (
"1141.84 738.097 LINE",
"1163.4 671.762 LINE",
"1233.14 671.762 LINE",
"1624.54 671.762 LINE",
"1307.89 441.702 LINE",
"1251.47 400.706 LINE",
"1273.02 334.371 LINE",
"1393.97 -38 LINE",
"1077.32 192.189 LINE",
"1020.89 233.185 LINE",
"964.466 192.189 LINE",
"647.818 -38 LINE",
"768.767 334.371 LINE",
"790.321 400.706 LINE",
"733.894 441.702 LINE",
"417.244 671.762 LINE",
"808.644 671.762 LINE",
"878.392 671.762 LINE",
"899.944 738.097 LINE",
"1020.89 1110.34 LINE"
);
},
{
closed = 1;
nodes = (
"808.644 767.762 LINE",
"121.787 767.762 LINE",
"677.466 364.037 LINE",
"465.216 -289 LINE",
"1020.89 114.522 LINE",
"1576.57 -289 LINE",
"1364.32 364.037 LINE",
"1920 767.762 LINE",
"1233.14 767.762 LINE",
"1020.89 1421 LINE"
);
}
);
width = 2048;
}
);
unicode = E032;
},
{
glyphname = uniE033;
lastChange = "2014-02-12 16:53:19 -0500";
layers = (
{
layerId = "CCC0E1AC-D470-4327-8277-0716FA3BBBFC";
name = Regular;
paths = (
{
closed = 1;
nodes = (
"1221.44 1152 OFFCURVE",
"1104.88 1078.88 OFFCURVE",
"1024.14 986.886 CURVE",
"943.415 1078.88 OFFCURVE",
"826.857 1152 OFFCURVE",
"697.269 1152 CURVE SMOOTH",
"453.615 1152 OFFCURVE",
"256 932.144 OFFCURVE",
"256 679.873 CURVE SMOOTH",
"256 545.779 OFFCURVE",
"311.838 425.132 OFFCURVE",
"400.775 341.564 CURVE SMOOTH",
"1024.14 -255 LINE",
"1648.27 341.564 LINE SMOOTH",
"1736.46 425.132 OFFCURVE",
"1792.29 545.779 OFFCURVE",
"1792.29 679.873 CURVE SMOOTH",
"1792.29 932.144 OFFCURVE",
"1594.68 1152 OFFCURVE",
"1351.02 1152 CURVE SMOOTH"
);
}
);
width = 2048;
}
);
unicode = E033;
},
{
glyphname = uniE034;
lastChange = "2014-02-12 16:54:40 -0500";
layers = (
{
layerId = "CCC0E1AC-D470-4327-8277-0716FA3BBBFC";
name = Regular;
paths = (
{
closed = 1;
nodes = (
"256 1152 LINE",
"256 128 LINE",
"1280 128 LINE",
"1280 -256 LINE",
"1664 128 LINE",
"1792 128 LINE",
"1792 1152 LINE"
);
}
);
width = 2048;
}
);
unicode = E034;
},
{
glyphname = uniE035;
lastChange = "2014-02-12 16:52:17 -0500";
layers = (
{
layerId = "CCC0E1AC-D470-4327-8277-0716FA3BBBFC";
name = Regular;
paths = (
{
closed = 1;
nodes = (
"256 1152 LINE",
"256 128 LINE",
"1280 128 LINE",
"1280 -256 LINE",
"1664 128 LINE",
"1792 128 LINE",
"1792 1152 LINE"
);
},
{
closed = 1;
nodes = (
"1091.94 711.734 LINE",
"1290.73 711.734 LINE",
"1290.73 581.283 LINE",
"1091.94 581.283 LINE",
"1091.94 382.498 LINE",
"961.49 382.498 LINE",
"961.49 581.283 LINE",
"762.706 581.283 LINE",
"762.707 711.734 LINE",
"961.49 711.735 LINE",
"961.49 910.519 LINE",
"1091.94 910.519 LINE"
);
}
);
width = 2048;
}
);
unicode = E035;
},
{
glyphname = uniE036;
lastChange = "2014-02-12 16:49:44 -0500";
layers = (
{
layerId = "CCC0E1AC-D470-4327-8277-0716FA3BBBFC";
name = Regular;
paths = (
{
closed = 1;
nodes = (
"584 1024 OFFCURVE",
"384 824 OFFCURVE",
"384 576 CURVE SMOOTH",
"384 544 OFFCURVE",
"384 512 OFFCURVE",
"392 488 CURVE",
"312 440 OFFCURVE",
"256 352 OFFCURVE",
"256 256 CURVE SMOOTH",
"256 112 OFFCURVE",
"368 0 OFFCURVE",
"512 0 CURVE SMOOTH",
"1600 0 LINE SMOOTH",
"1704 0 OFFCURVE",
"1792 88 OFFCURVE",
"1792 192 CURVE SMOOTH",
"1792 280 OFFCURVE",
"1736 352 OFFCURVE",
"1656 376 CURVE",
"1664 400 OFFCURVE",
"1664 424 OFFCURVE",
"1664 448 CURVE SMOOTH",
"1664 624 OFFCURVE",
"1520 768 OFFCURVE",
"1344 768 CURVE SMOOTH",
"1312 768 OFFCURVE",
"1272 760 OFFCURVE",
"1248 752 CURVE",
"1176 912 OFFCURVE",
"1016 1024 OFFCURVE",
"832 1024 CURVE SMOOTH"
);
}
);
width = 2048;
}
);
unicode = E036;
},
{
glyphname = uniE037;
lastChange = "2014-02-12 16:48:11 -0500";
layers = (
{
layerId = "CCC0E1AC-D470-4327-8277-0716FA3BBBFC";
name = Regular;
paths = (
{
closed = 1;
nodes = (
"584 1024 OFFCURVE",
"384 824 OFFCURVE",
"384 576 CURVE SMOOTH",
"384 544 OFFCURVE",
"384 512 OFFCURVE",
"392 488 CURVE",
"312 440 OFFCURVE",
"256 352 OFFCURVE",
"256 256 CURVE SMOOTH",
"256 112 OFFCURVE",
"368 0 OFFCURVE",
"512 0 CURVE SMOOTH",
"1600 0 LINE SMOOTH",
"1704 0 OFFCURVE",
"1792 88 OFFCURVE",
"1792 192 CURVE SMOOTH",
"1792 280 OFFCURVE",
"1736 352 OFFCURVE",
"1656 376 CURVE",
"1664 400 OFFCURVE",
"1664 424 OFFCURVE",
"1664 448 CURVE SMOOTH",
"1664 624 OFFCURVE",
"1520 768 OFFCURVE",
"1344 768 CURVE SMOOTH",
"1312 768 OFFCURVE",
"1272 760 OFFCURVE",
"1248 752 CURVE",
"1176 912 OFFCURVE",
"1016 1024 OFFCURVE",
"832 1024 CURVE SMOOTH"
);
},
{
closed = 1;
nodes = (
"1088 448 LINE",
"1280 448 LINE",
"960 128 LINE",
"640 448 LINE",
"832 448 LINE",
"832 768 LINE",
"1088 768 LINE"
);
}
);
width = 2048;
}
);
unicode = E037;
},
{
glyphname = uniE038;
lastChange = "2014-02-12 16:50:12 -0500";
layers = (
{
layerId = "CCC0E1AC-D470-4327-8277-0716FA3BBBFC";
name = Regular;
paths = (
{
closed = 1;
nodes = (
"584.576 1024 OFFCURVE",
"384 823.423 OFFCURVE",
"384 576 CURVE SMOOTH",
"384 544.128 OFFCURVE",
"387.336 513.037 OFFCURVE",
"393.664 483.049 CURVE",
"311.852 440.321 OFFCURVE",
"256 354.69 OFFCURVE",
"256 256 CURVE SMOOTH",
"256 114.615 OFFCURVE",
"370.614 0 OFFCURVE",
"512 0 CURVE SMOOTH",
"1600 0 LINE SMOOTH",
"1706.04 0 OFFCURVE",
"1792 85.9614 OFFCURVE",
"1792 192 CURVE SMOOTH",
"1792 278.626 OFFCURVE",
"1734.63 351.842 OFFCURVE",
"1655.81 375.75 CURVE",
"1661.17 398.969 OFFCURVE",
"1664 423.154 OFFCURVE",
"1664 448 CURVE SMOOTH",
"1664 624.731 OFFCURVE",
"1520.73 768 OFFCURVE",
"1344 768 CURVE SMOOTH",
"1309.1 768 OFFCURVE",
"1275.51 762.393 OFFCURVE",
"1244.07 752.065 CURVE",
"1175.66 911.96 OFFCURVE",
"1016.92 1024 OFFCURVE",
"832 1024 CURVE SMOOTH"
);
},
{
closed = 1;
nodes = (
"1280 448 LINE",
"1088 448 LINE",
"1088 128 LINE",
"832 128 LINE",
"832 448 LINE",
"640 448 LINE",
"960 768 LINE"
);
}
);
width = 2048;
}
);
unicode = E038;
},
{
glyphname = uniE039;
lastChange = "2014-02-12 16:48:31 -0500";
layers = (
{
layerId = "CCC0E1AC-D470-4327-8277-0716FA3BBBFC";
name = Regular;
paths = (
{
closed = 1;
nodes = (
"584.576 1024 OFFCURVE",
"384 823.423 OFFCURVE",
"384 576 CURVE SMOOTH",
"384 544.128 OFFCURVE",
"387.336 513.037 OFFCURVE",
"393.664 483.049 CURVE",
"311.852 440.321 OFFCURVE",
"256 354.69 OFFCURVE",
"256 256 CURVE SMOOTH",
"256 114.615 OFFCURVE",
"370.614 0 OFFCURVE",
"512 0 CURVE SMOOTH",
"1600 0 LINE SMOOTH",
"1706.04 0 OFFCURVE",
"1792 85.9614 OFFCURVE",
"1792 192 CURVE SMOOTH",
"1792 278.626 OFFCURVE",
"1734.63 351.842 OFFCURVE",
"1655.81 375.75 CURVE",
"1661.17 398.969 OFFCURVE",
"1664 423.154 OFFCURVE",
"1664 448 CURVE SMOOTH",
"1664 624.731 OFFCURVE",
"1520.73 768 OFFCURVE",
"1344 768 CURVE SMOOTH",
"1309.1 768 OFFCURVE",
"1275.51 762.393 OFFCURVE",
"1244.07 752.065 CURVE",
"1175.66 911.96 OFFCURVE",
"1016.92 1024 OFFCURVE",
"832 1024 CURVE SMOOTH"
);
},
{
closed = 1;
nodes = (
"1229.1 664.26 OFFCURVE",
"1278.34 565.705 OFFCURVE",
"1279.91 464.779 CURVE",
"1347.62 464.545 LINE",
"1217.91 271.411 LINE",
"1089.52 465.431 LINE",
"1173.37 465.145 LINE",
"1171.72 531.75 OFFCURVE",
"1138.96 596.583 OFFCURVE",
"1079.52 636.677 CURVE SMOOTH",
"981.976 702.469 OFFCURVE",
"849.569 676.731 OFFCURVE",
"783.778 579.191 CURVE SMOOTH",
"717.985 481.65 OFFCURVE",
"743.723 349.245 OFFCURVE",
"841.263 283.453 CURVE SMOOTH",
"879.059 257.961 OFFCURVE",
"922.088 246.213 OFFCURVE",
"964.45 247.058 CURVE",
"984.127 141.393 LINE",
"914.977 136.192 OFFCURVE",
"843.648 153.362 OFFCURVE",
"781.699 195.148 CURVE SMOOTH",
"635.389 293.835 OFFCURVE",
"596.783 492.446 OFFCURVE",
"695.47 638.756 CURVE SMOOTH",
"794.158 785.064 OFFCURVE",
"992.768 823.67 OFFCURVE",
"1139.08 724.981 CURVE SMOOTH"
);
}
);
width = 2048;
}
);
unicode = E039;
},
{
glyphname = uniE040;
lastChange = "2014-02-12 16:49:47 -0500";
layers = (
{
layerId = "CCC0E1AC-D470-4327-8277-0716FA3BBBFC";
name = Regular;
paths = (
{
closed = 1;
nodes = (
"1778.6 1151.08 OFFCURVE",
"1756.35 1149.55 OFFCURVE",
"1735.07 1148.34 CURVE SMOOTH",
"1693.88 1146.51 OFFCURVE",
"1662.9 1142.59 OFFCURVE",
"1662.9 1142.59 CURVE",
"1553.74 1129.72 OFFCURVE",
"1433.12 1101.69 OFFCURVE",
"1317.19 1061.32 CURVE SMOOTH",
"1242.91 1035.45 OFFCURVE",
"1122 987.248 OFFCURVE",
"1022.55 918.847 CURVE",
"920.219 983.529 OFFCURVE",
"796.09 1032.06 OFFCURVE",
"737.015 1053.39 CURVE SMOOTH",
"658.788 1081.63 OFFCURVE",
"522.929 1124.83 OFFCURVE",
"382.631 1142.31 CURVE",
"382.63 1142.59 OFFCURVE",
"306.77 1151.5 OFFCURVE",
"256 1150 CURVE",
"256 126 LINE",
"256 126 OFFCURVE",
"633.517 30.1641 OFFCURVE",
"865.427 -66 CURVE",
"865.427 -105 LINE",
"872 -120 OFFCURVE",
"952 -128 OFFCURVE",
"1024 -128 CURVE SMOOTH",
"1096 -128 OFFCURVE",
"1168 -120 OFFCURVE",
"1183.43 -105 CURVE",
"1183.43 -60 LINE",
"1417.58 40.6362 OFFCURVE",
"1790.77 126.009 OFFCURVE",
"1792 126 CURVE",
"1792 1150 LINE"
);
},
{
closed = 1;
nodes = (
"1663.06 243.804 LINE",
"1554.14 231.104 OFFCURVE",
"1433.89 203.118 OFFCURVE",
"1318.29 162.863 CURVE SMOOTH",
"1244.01 136.996 OFFCURVE",
"1123.1 88.7944 OFFCURVE",
"1023.65 20.394 CURVE",
"921.319 85.0762 OFFCURVE",
"797.191 133.607 OFFCURVE",
"738.116 154.933 CURVE SMOOTH",
"659.938 183.154 OFFCURVE",
"524.204 226.319 OFFCURVE",
"384 243.819 CURVE",
"384 1077.44 LINE",
"623.775 1045.36 OFFCURVE",
"919.279 929.488 OFFCURVE",
"1024 830 CURVE",
"1135.09 946.048 OFFCURVE",
"1422.27 1049.5 OFFCURVE",
"1663.06 1078.14 CURVE"
);
},
{
closed = 1;
nodes = (
"1418.2 421.816 OFFCURVE",
"1214.21 351.117 OFFCURVE",
"1090.95 267.338 CURVE",
"1090.95 203.338 LINE",
"1214.21 287.117 OFFCURVE",
"1418.2 357.816 OFFCURVE",
"1605.53 388.197 CURVE",
"1605.53 452.197 LINE"
);
},
{
closed = 1;
nodes = (
"1418.2 667.464 OFFCURVE",
"1214.21 596.765 OFFCURVE",
"1090.95 512.986 CURVE",
"1090.95 448.986 LINE",
"1214.21 532.765 OFFCURVE",
"1418.2 603.464 OFFCURVE",
"1605.53 633.845 CURVE",
"1605.53 697.845 LINE"
);
},
{
closed = 1;
nodes = (
"1418.2 913.111 OFFCURVE",
"1214.21 842.412 OFFCURVE",
"1090.95 758.634 CURVE",
"1090.95 694.634 LINE",
"1214.21 778.412 OFFCURVE",
"1418.2 849.111 OFFCURVE",
"1605.53 879.492 CURVE",
"1605.53 943.492 LINE"
);
}
);
width = 2048;
}
);
unicode = E040;
},
{
glyphname = uniE041;
lastChange = "2014-02-12 16:50:02 -0500";
layers = (
{
layerId = "CCC0E1AC-D470-4327-8277-0716FA3BBBFC";
name = Regular;
paths = (
{
closed = 1;
nodes = (
"1778.6 1158.08 OFFCURVE",
"1756.35 1156.55 OFFCURVE",
"1735.07 1155.34 CURVE SMOOTH",
"1693.88 1153.51 OFFCURVE",
"1662.9 1149.59 OFFCURVE",
"1662.9 1149.59 CURVE",
"1553.74 1136.72 OFFCURVE",
"1433.12 1108.69 OFFCURVE",
"1317.19 1068.32 CURVE SMOOTH",
"1242.91 1042.45 OFFCURVE",
"1122 994.248 OFFCURVE",
"1022.55 925.847 CURVE",
"920.219 990.529 OFFCURVE",
"796.09 1039.06 OFFCURVE",
"737.015 1060.39 CURVE SMOOTH",
"658.788 1088.63 OFFCURVE",
"522.929 1131.83 OFFCURVE",
"382.631 1149.31 CURVE",
"382.63 1149.59 OFFCURVE",
"306.77 1158.5 OFFCURVE",
"256 1157 CURVE",
"256 133 LINE",
"256 133 OFFCURVE",
"633.517 37.1641 OFFCURVE",
"865.427 -59 CURVE",
"865.427 -98 LINE",
"872 -112 OFFCURVE",
"952 -128 OFFCURVE",
"1024 -128 CURVE SMOOTH",
"1096 -128 OFFCURVE",
"1168 -120 OFFCURVE",
"1183.43 -98 CURVE",
"1183.43 -53 LINE",
"1417.58 47.6362 OFFCURVE",
"1790.77 133.009 OFFCURVE",
"1792 133 CURVE",
"1792 1157 LINE"
);
},
{
closed = 1;
nodes = (
"1663.06 250.804 LINE",
"1554.14 238.104 OFFCURVE",
"1433.89 210.118 OFFCURVE",
"1318.29 169.863 CURVE SMOOTH",
"1244.01 143.996 OFFCURVE",
"1123.1 95.7944 OFFCURVE",
"1023.65 27.394 CURVE",
"921.319 92.0762 OFFCURVE",
"797.191 140.607 OFFCURVE",
"738.116 161.933 CURVE SMOOTH",
"659.938 190.154 OFFCURVE",
"524.204 233.319 OFFCURVE",
"384 250.819 CURVE",
"384 1084.44 LINE",
"623.775 1052.36 OFFCURVE",
"919.279 936.488 OFFCURVE",
"1024 837 CURVE",
"1077.15 892.521 OFFCURVE",
"1170.6 945.157 OFFCURVE",
"1280 988.098 CURVE",
"1280 513.009 LINE",
"1408 641.009 LINE",
"1536 513.009 LINE",
"1536 1064.07 LINE",
"1578.97 1073.09 OFFCURVE",
"1621.7 1080.22 OFFCURVE",
"1663.06 1085.14 CURVE"
);
}
);
width = 2048;
}
);
unicode = E041;
},
{
glyphname = uniE042;
lastChange = "2014-02-12 16:54:21 -0500";
layers = (
{
layerId = "CCC0E1AC-D470-4327-8277-0716FA3BBBFC";
name = Regular;
paths = (
{
closed = 1;
nodes = (
"512 1280 LINE",
"512 -256 LINE",
"1536 -256 LINE",
"1536 896 LINE",
"1152 1280 LINE"
);
},
{
closed = 1;
nodes = (
"955.284 614.078 LINE",
"955.283 418.023 LINE",
"759.229 418.023 LINE",
"759.228 289.361 LINE",
"955.283 289.361 LINE",
"955.283 93.3062 LINE",
"1083.94 93.3062 LINE",
"1083.94 289.361 LINE",
"1280 289.361 LINE",
"1280 418.023 LINE",
"1083.94 418.023 LINE",
"1083.94 614.078 LINE"
);
},
{
closed = 1;
nodes = (
"1025.75 770.141 LINE",
"1408 770.141 LINE",
"1408 -128 LINE",
"640 -128 LINE",
"640 1152 LINE",
"1025.75 1152 LINE"
);
},
{
closed = 1;
nodes = (
"1352.84 898.141 LINE",
"1153.75 898.141 LINE",
"1153.75 1097.23 LINE"
);
}
);
width = 2048;
}
);
unicode = E042;
},
{
glyphname = uniE043;
lastChange = "2014-02-12 16:56:19 -0500";
layers = (
{
layerId = "CCC0E1AC-D470-4327-8277-0716FA3BBBFC";
name = Regular;
paths = (
{
closed = 1;
nodes = (
"512 1280 LINE",
"512 -256 LINE",
"1536 -256 LINE",
"1536 896 LINE",
"1152 1280 LINE"
);
},
{
closed = 1;
nodes = (
"759.229 418.023 LINE",
"759.228 289.361 LINE",
"1280 289.361 LINE",
"1280 418.023 LINE"
);
},
{
closed = 1;
nodes = (
"1025.75 770.141 LINE",
"1408 770.141 LINE",
"1408 -128 LINE",
"640 -128 LINE",
"640 1152 LINE",
"1025.75 1152 LINE"
);
},
{
closed = 1;
nodes = (
"1352.84 898.141 LINE",
"1153.75 898.141 LINE",
"1153.75 1097.23 LINE"
);
}
);
width = 2048;
}
);
unicode = E043;
},
{
glyphname = uniE044;
lastChange = "2014-02-12 16:54:01 -0500";
layers = (
{
layerId = "CCC0E1AC-D470-4327-8277-0716FA3BBBFC";
name = Regular;
paths = (
{
closed = 1;
nodes = (
"512 1273 LINE",
"512 -263 LINE",
"1536 -263 LINE",
"1536 889 LINE",
"1152 1273 LINE"
);
},
{
closed = 1;
nodes = (
"1025.75 763.141 LINE",
"1408 763.141 LINE",
"1408 -135 LINE",
"640 -135 LINE",
"640 1145 LINE",
"1025.75 1145 LINE"
);
},
{
closed = 1;
nodes = (
"1352.84 891.141 LINE",
"1153.75 891.141 LINE",
"1153.75 1090.23 LINE"
);
}
);
width = 2048;
}
);
unicode = E044;
},
{
glyphname = uniE045;
lastChange = "2014-02-12 16:53:14 -0500";
layers = (
{
layerId = "CCC0E1AC-D470-4327-8277-0716FA3BBBFC";
name = Regular;
paths = (
{
closed = 1;
nodes = (
"640 384 LINE",
"384 256 LINE",
"384 -256 LINE",
"1664 -256 LINE",
"1664 256 LINE",
"1408 384 LINE"
);
},
{
closed = 1;
nodes = (
"1279.54 1 LINE",
"767.539 1 LINE",
"767.539 129 LINE",
"1279.54 129 LINE"
);
},
{
closed = 1;
nodes = (
"811.923 1280 OFFCURVE",
"640 1108.08 OFFCURVE",
"640 896 CURVE SMOOTH",
"640 683.923 OFFCURVE",
"811.923 512 OFFCURVE",
"1024 512 CURVE SMOOTH",
"1236.08 512 OFFCURVE",
"1408 683.923 OFFCURVE",
"1408 896 CURVE SMOOTH",
"1408 1108.08 OFFCURVE",
"1236.08 1280 OFFCURVE",
"1024 1280 CURVE SMOOTH"
);
}
);
width = 2048;
}
);
unicode = E045;
},
{
glyphname = uniE046;
lastChange = "2014-02-12 16:55:39 -0500";
layers = (
{
layerId = "CCC0E1AC-D470-4327-8277-0716FA3BBBFC";
name = Regular;
paths = (
{
closed = 1;
nodes = (
"640 384 LINE",
"384 256 LINE",
"384 -256 LINE",
"1664 -256 LINE",
"1664 256 LINE",
"1408 384 LINE"
);
},
{
closed = 1;
nodes = (
"811.923 1280 OFFCURVE",
"640 1108.08 OFFCURVE",
"640 896 CURVE SMOOTH",
"640 683.923 OFFCURVE",
"811.923 512 OFFCURVE",
"1024 512 CURVE SMOOTH",
"1236.08 512 OFFCURVE",
"1408 683.923 OFFCURVE",
"1408 896 CURVE SMOOTH",
"1408 1108.08 OFFCURVE",
"1236.08 1280 OFFCURVE",
"1024 1280 CURVE SMOOTH"
);
}
);
width = 2048;
}
);
unicode = E046;
},
{
glyphname = uniE047;
lastChange = "2014-02-12 16:56:50 -0500";
layers = (
{
layerId = "CCC0E1AC-D470-4327-8277-0716FA3BBBFC";
name = Regular;
paths = (
{
closed = 1;
nodes = (
"640 384 LINE",
"384 256 LINE",
"384 -256 LINE",
"1664 -256 LINE",
"1664 256 LINE",
"1408 384 LINE"
);
},
{
closed = 1;
nodes = (
"1092.25 129 LINE",
"1279.54 129 LINE",
"1279.54 1 LINE",
"1092.25 1 LINE",
"1092.25 -194 LINE",
"963.594 -194 LINE",
"963.594 1 LINE",
"767.539 1 LINE",
"767.539 129 LINE",
"963.594 129 LINE",
"963.594 327 LINE",
"1092.25 327 LINE"
);
},
{
closed = 1;
nodes = (
"811.923 1280 OFFCURVE",
"640 1108.08 OFFCURVE",
"640 896 CURVE SMOOTH",
"640 683.923 OFFCURVE",
"811.923 512 OFFCURVE",
"1024 512 CURVE SMOOTH",
"1236.08 512 OFFCURVE",
"1408 683.923 OFFCURVE",
"1408 896 CURVE SMOOTH",
"1408 1108.08 OFFCURVE",
"1236.08 1280 OFFCURVE",
"1024 1280 CURVE SMOOTH"
);
}
);
width = 2048;
}
);
unicode = E047;
},
{
glyphname = uniE048;
lastChange = "2014-02-12 16:50:16 -0500";
layers = (
{
layerId = "CCC0E1AC-D470-4327-8277-0716FA3BBBFC";
name = Regular;
paths = (
{
closed = 1;
nodes = (
"760 1408 OFFCURVE",
"520 1184 OFFCURVE",
"520 896 CURVE",
"776 896 LINE",
"776 1048 OFFCURVE",
"904 1152 OFFCURVE",
"1024 1152 CURVE SMOOTH",
"1168 1152 OFFCURVE",
"1280 1008 OFFCURVE",
"1280 832 CURVE SMOOTH",
"1280 816 OFFCURVE",
"1280 800 OFFCURVE",
"1280 792 CURVE SMOOTH",
"1280 784 OFFCURVE",
"1280 776 OFFCURVE",
"1280 768 CURVE",
"1280 648 LINE",
"384 648 LINE",
"384 -256 LINE",
"1664 -256 LINE",
"1664 648 LINE",
"1536 648 LINE",
"1536 768 LINE",
"1536 776 OFFCURVE",
"1536 784 OFFCURVE",
"1536 792 CURVE SMOOTH",
"1536 800 OFFCURVE",
"1536 816 OFFCURVE",
"1536 832 CURVE SMOOTH",
"1536 1152 OFFCURVE",
"1312 1408 OFFCURVE",
"1024 1408 CURVE SMOOTH"
);
},
{
closed = 1;
nodes = (
"1352 256 OFFCURVE",
"1408 200 OFFCURVE",
"1408 128 CURVE SMOOTH",
"1408 56 OFFCURVE",
"1352 0 OFFCURVE",
"1280 0 CURVE SMOOTH",
"1216 0 OFFCURVE",
"1152 56 OFFCURVE",
"1152 128 CURVE SMOOTH",
"1152 200 OFFCURVE",
"1216 256 OFFCURVE",
"1280 256 CURVE SMOOTH"
);
}
);
width = 2048;
}
);
unicode = E048;
},
{
glyphname = uniE049;
lastChange = "2014-02-12 16:50:25 -0500";
layers = (
{
layerId = "CCC0E1AC-D470-4327-8277-0716FA3BBBFC";
name = Regular;
paths = (
{
closed = 1;
nodes = (
"744.231 1401 OFFCURVE",
"515 1143.12 OFFCURVE",
"515 825 CURVE SMOOTH",
"512 808 OFFCURVE",
"512 800 OFFCURVE",
"512 784 CURVE SMOOTH",
"512 776 OFFCURVE",
"512 768 OFFCURVE",
"515 761 CURVE",
"515 640 LINE",
"384 640 LINE",
"384 -256 LINE",
"1664 -256 LINE",
"1664 640 LINE",
"1539 640 LINE",
"1539 761 LINE",
"1536 768 OFFCURVE",
"1536 776 OFFCURVE",
"1536 784 CURVE SMOOTH",
"1536 800 OFFCURVE",
"1536 808 OFFCURVE",
"1539 825 CURVE SMOOTH",
"1539 1143.12 OFFCURVE",
"1309.77 1401 OFFCURVE",
"1027 1401 CURVE SMOOTH"
);
},
{
closed = 1;
nodes = (
"1353.69 249 OFFCURVE",
"1411 191.692 OFFCURVE",
"1411 121 CURVE SMOOTH",
"1411 50.3076 OFFCURVE",
"1353.69 -7 OFFCURVE",
"1283 -7 CURVE SMOOTH",
"1212.31 -7 OFFCURVE",
"1155 50.3076 OFFCURVE",
"1155 121 CURVE SMOOTH",
"1155 191.692 OFFCURVE",
"1212.31 249 OFFCURVE",
"1283 249 CURVE SMOOTH"
);
},
{
closed = 1;
nodes = (
"1168.38 1145 OFFCURVE",
"1283 1001.73 OFFCURVE",
"1283 825 CURVE SMOOTH",
"1280 808 OFFCURVE",
"1288 800 OFFCURVE",
"1288 784 CURVE SMOOTH",
"1288 776 OFFCURVE",
"1288 768 OFFCURVE",
"1283 761 CURVE",
"1283 640 LINE",
"771 640 LINE",
"771 761 LINE",
"768 768 OFFCURVE",
"768 776 OFFCURVE",
"768 784 CURVE SMOOTH",
"768 800 OFFCURVE",
"768 808 OFFCURVE",
"771 825 CURVE SMOOTH",
"771 1001.73 OFFCURVE",
"885.615 1145 OFFCURVE",
"1027 1145 CURVE SMOOTH"
);
}
);
width = 2048;
}
);
unicode = E049;
},
{
glyphname = uniE050;
lastChange = "2014-02-12 16:49:14 -0500";
layers = (
{
layerId = "CCC0E1AC-D470-4327-8277-0716FA3BBBFC";
name = Regular;
paths = (
{
closed = 1;
nodes = (
"256 893.077 LINE",
"256 128 LINE",
"1666.14 128 LINE",
"1666.14 386.026 LINE",
"1795.03 386.026 LINE",
"1795.03 641.051 LINE",
"1666.14 641.051 LINE",
"1666.14 893.077 LINE"
);
}
);
width = 2048;
}
);
unicode = E050;
},
{
glyphname = uniE051;
lastChange = "2014-02-12 16:49:09 -0500";
layers = (
{
layerId = "CCC0E1AC-D470-4327-8277-0716FA3BBBFC";
name = Regular;
paths = (
{
closed = 1;
nodes = (
"256 893.077 LINE",
"256 128 LINE",
"1666.14 128 LINE",
"1666.14 386.026 LINE",
"1795.03 386.026 LINE",
"1795.03 641.051 LINE",
"1666.14 641.051 LINE",
"1666.14 893.077 LINE"
);
},
{
closed = 1;
nodes = (
"1539.03 255.667 LINE",
"1283.03 255.667 LINE",
"1283.03 767.667 LINE",
"1539.03 767.667 LINE"
);
}
);
width = 2048;
}
);
unicode = E051;
},
{
glyphname = uniE052;
lastChange = "2014-02-12 16:49:22 -0500";
layers = (
{
layerId = "CCC0E1AC-D470-4327-8277-0716FA3BBBFC";
name = Regular;
paths = (
{
closed = 1;
nodes = (
"252.973 893.077 LINE",
"252.973 128 LINE",
"1663.11 128 LINE",
"1663.11 386.026 LINE",
"1792 386.026 LINE",
"1792 641.051 LINE",
"1663.11 641.051 LINE",
"1663.11 893.077 LINE"
);
},
{
closed = 1;
nodes = (
"1536 255.667 LINE",
"1024 255.667 LINE",
"1024 767.667 LINE",
"1536 767.667 LINE"
);
}
);
width = 2048;
}
);
unicode = E052;
},
{
glyphname = uniE053;
lastChange = "2014-02-12 16:48:06 -0500";
layers = (
{
layerId = "CCC0E1AC-D470-4327-8277-0716FA3BBBFC";
name = Regular;
paths = (
{
closed = 1;
nodes = (
"256 893.077 LINE",
"256 128 LINE",
"1666.14 128 LINE",
"1666.14 386.026 LINE",
"1795.03 386.026 LINE",
"1795.03 641.051 LINE",
"1666.14 641.051 LINE",
"1666.14 893.077 LINE"
);
},
{
closed = 1;
nodes = (
"1539.03 255.667 LINE",
"643.027 255.667 LINE",
"643.027 767.667 LINE",
"1539.03 767.667 LINE"
);
}
);
width = 2048;
}
);
unicode = E053;
},
{
glyphname = uniE054;
lastChange = "2014-02-12 16:49:36 -0500";
layers = (
{
layerId = "CCC0E1AC-D470-4327-8277-0716FA3BBBFC";
name = Regular;
paths = (
{
closed = 1;
nodes = (
"256 896 LINE",
"256 130.923 LINE",
"1666.14 130.923 LINE",
"1666.14 388.949 LINE",
"1795.03 388.949 LINE",
"1795.03 643.975 LINE",
"1666.14 643.975 LINE",
"1666.14 896 LINE"
);
},
{
closed = 1;
nodes = (
"1539.03 258.59 LINE",
"387.027 258.59 LINE",
"387.027 770.59 LINE",
"1539.03 770.59 LINE"
);
}
);
width = 2048;
}
);
unicode = E054;
},
{
glyphname = uniE055;
lastChange = "2014-02-12 16:49:18 -0500";
layers = (
{
layerId = "CCC0E1AC-D470-4327-8277-0716FA3BBBFC";
name = Regular;
paths = (
{
closed = 1;
nodes = (
"256 893.077 LINE",
"256 128 LINE",
"1666.14 128 LINE",
"1666.14 386.026 LINE",
"1795.03 386.026 LINE",
"1795.03 641.051 LINE",
"1666.14 641.051 LINE",
"1666.14 893.077 LINE"
);
},
{
closed = 1;
nodes = (
"1091.03 575.667 LINE",
"1283.03 575.667 LINE",
"1283.03 447.667 LINE",
"1091.03 447.667 LINE",
"1091.03 255.667 LINE",
"963.027 255.667 LINE",
"963.027 447.667 LINE",
"771.027 447.667 LINE",
"771.027 575.667 LINE",
"963.027 575.667 LINE",
"963.027 767.667 LINE",
"1091.03 767.667 LINE"
);
}
);
width = 2048;
}
);
unicode = E055;
},
{
glyphname = uniE056;
lastChange = "2014-02-12 16:51:51 -0500";
layers = (
{
layerId = "CCC0E1AC-D470-4327-8277-0716FA3BBBFC";
name = Regular;
paths = (
{
closed = 1;
nodes = (
"1425.95 1147.56 OFFCURVE",
"621.94 1147.44 OFFCURVE",
"128 653.497 CURVE",
"255.936 525.56 LINE",
"679.445 949.067 OFFCURVE",
"1368.57 949.068 OFFCURVE",
"1792.08 525.562 CURVE",
"1920.02 653.497 LINE"
);
},
{
closed = 1;
nodes = (
"1081.32 -44 OFFCURVE",
"966.757 -44 OFFCURVE",
"896.008 -115 CURVE",
"1024.01 -243 LINE",
"1152.01 -115 LINE"
);
},
{
closed = 1;
nodes = (
"1196.26 353.243 OFFCURVE",
"851.754 353.243 OFFCURVE",
"640.005 141.493 CURVE",
"768.063 13.4346 LINE",
"909.252 154.623 OFFCURVE",
"1138.76 154.615 OFFCURVE",
"1279.95 13.4268 CURVE",
"1408.01 141.493 LINE"
);
},
{
closed = 1;
nodes = (
"512.002 269.494 LINE",
"794.193 551.683 OFFCURVE",
"1253.69 551.812 OFFCURVE",
"1536.01 269.494 CURVE",
"1663.95 397.431 LINE",
"1311.07 750.312 OFFCURVE",
"736.818 750.44 OFFCURVE",
"383.939 397.559 CURVE"
);
}
);
width = 2048;
}
);
unicode = E056;
},
{
glyphname = uniE057;
lastChange = "2014-02-12 16:51:23 -0500";
layers = (
{
layerId = "CCC0E1AC-D470-4327-8277-0716FA3BBBFC";
name = Regular;
paths = (
{
closed = 1;
nodes = (
"512.053 384.004 LINE",
"794.244 666.193 OFFCURVE",
"1253.74 666.322 OFFCURVE",
"1536.06 384.004 CURVE",
"1664 511.94 LINE",
"1311.12 864.821 OFFCURVE",
"736.869 864.95 OFFCURVE",
"383.989 512.069 CURVE"
);
},
{
closed = 1;
nodes = (
"1081.37 70.6909 OFFCURVE",
"966.808 70.7495 OFFCURVE",
"896.059 0 CURVE",
"1024.06 -128 LINE",
"1152.06 0 LINE"
);
},
{
closed = 1;
nodes = (
"1196.31 467.752 OFFCURVE",
"851.805 467.752 OFFCURVE",
"640.056 256.003 CURVE",
"768.114 127.944 LINE",
"909.303 269.133 OFFCURVE",
"1138.81 269.125 OFFCURVE",
"1280 127.937 CURVE",
"1408.06 256.003 LINE"
);
}
);
width = 2048;
}
);
unicode = E057;
},
{
glyphname = uniE058;
lastChange = "2014-02-12 16:51:56 -0500";
layers = (
{
layerId = "CCC0E1AC-D470-4327-8277-0716FA3BBBFC";
name = Regular;
paths = (
{
closed = 1;
nodes = (
"1196.25 339.752 OFFCURVE",
"851.744 339.752 OFFCURVE",
"639.995 128.003 CURVE",
"768.054 0 LINE",
"909.242 141.133 OFFCURVE",
"1138.75 141.125 OFFCURVE",
"1279.94 0 CURVE",
"1408 128.003 LINE"
);
},
{
closed = 1;
nodes = (
"1081.31 -57 OFFCURVE",
"966.747 -57 OFFCURVE",
"895.998 -128 CURVE",
"1024 -256 LINE",
"1152 -128 LINE"
);
}
);
width = 2048;
}
);
unicode = E058;
},
{
glyphname = uniE059;
lastChange = "2014-02-12 16:51:38 -0500";
layers = (
{
layerId = "CCC0E1AC-D470-4327-8277-0716FA3BBBFC";
name = Regular;
paths = (
{
closed = 1;
nodes = (
"1016 600 LINE",
"816 800 LINE",
"688 672 LINE",
"888 472 LINE",
"688 272 LINE",
"816 144 LINE",
"1016 344 LINE",
"1216 144 LINE",
"1344 272 LINE",
"1144 472 LINE",
"1344 672 LINE",
"1216 800 LINE"
);
},
{
closed = 1;
nodes = (
"1080 72 OFFCURVE",
"968 72 OFFCURVE",
"896 0 CURVE",
"1024 -128 LINE",
"1152 0 LINE"
);
}
);
width = 2048;
}
);
unicode = E059;
},
{
glyphname = uniE060;
lastChange = "2014-02-12 16:50:32 -0500";
layers = (
{
layerId = "CCC0E1AC-D470-4327-8277-0716FA3BBBFC";
name = Regular;
paths = (
{
closed = 1;
nodes = (
"1408 1280 LINE",
"1408 -256 LINE",
"1664 -256 LINE",
"1664 1280 LINE"
);
},
{
closed = 1;
nodes = (
"256 128 LINE",
"256 -256 LINE",
"512 -256 LINE",
"512 128 LINE"
);
},
{
closed = 1;
nodes = (
"640 512 LINE",
"640 -256 LINE",
"896 -256 LINE",
"896 512 LINE"
);
},
{
closed = 1;
nodes = (
"1024 896 LINE",
"1024 -256 LINE",
"1280 -256 LINE",
"1280 896 LINE"
);
}
);
width = 2048;
}
);
unicode = E060;
},
{
glyphname = uniE061;
lastChange = "2014-02-12 16:48:16 -0500";
layers = (
{
layerId = "CCC0E1AC-D470-4327-8277-0716FA3BBBFC";
name = Regular;
paths = (
{
closed = 1;
nodes = (
"1024 896 LINE",
"1024 -256 LINE",
"1280 -256 LINE",
"1280 896 LINE"
);
},
{
closed = 1;
nodes = (
"256 128 LINE",
"256 -256 LINE",
"512 -256 LINE",
"512 128 LINE"
);
},
{
closed = 1;
nodes = (
"640 512 LINE",
"640 -256 LINE",
"896 -256 LINE",
"896 512 LINE"
);
},
{
closed = 1;
nodes = (
"1408 -128 LINE",
"1408 -256 LINE",
"1664 -256 LINE",
"1664 -128 LINE"
);
}
);
width = 2048;
}
);
unicode = E061;
},
{
glyphname = uniE062;
lastChange = "2014-02-12 16:50:20 -0500";
layers = (
{
layerId = "CCC0E1AC-D470-4327-8277-0716FA3BBBFC";
name = Regular;
paths = (
{
closed = 1;
nodes = (
"640 512 LINE",
"640 -256 LINE",
"896 -256 LINE",
"896 512 LINE"
);
},
{
closed = 1;
nodes = (
"256 128 LINE",
"256 -256 LINE",
"512 -256 LINE",
"512 128 LINE"
);
},
{
closed = 1;
nodes = (
"1024 -128 LINE",
"1024 -256 LINE",
"1280 -256 LINE",
"1280 -128 LINE"
);
},
{
closed = 1;
nodes = (
"1408 -128 LINE",
"1408 -256 LINE",
"1664 -256 LINE",
"1664 -128 LINE"
);
}
);
width = 2048;
}
);
unicode = E062;
},
{
glyphname = uniE063;
lastChange = "2014-02-12 16:49:27 -0500";
layers = (
{
layerId = "CCC0E1AC-D470-4327-8277-0716FA3BBBFC";
name = Regular;
paths = (
{
closed = 1;
nodes = (
"256 127.999 LINE",
"256 -256 LINE",
"512 -256 LINE",
"512 127.999 LINE"
);
},
{
closed = 1;
nodes = (
"640 -128 LINE",
"640 -256 LINE",
"896 -256 LINE",
"896 -128 LINE"
);
},
{
closed = 1;
nodes = (
"1024 -128 LINE",
"1024 -256 LINE",
"1280 -256 LINE",
"1280 -128 LINE"
);
},
{
closed = 1;
nodes = (
"1408 -128 LINE",
"1408 -256 LINE",
"1664 -256 LINE",
"1664 -128 LINE"
);
}
);
width = 2048;
}
);
unicode = E063;
},
{
glyphname = uniE064;
lastChange = "2014-02-12 16:48:20 -0500";
layers = (
{
layerId = "CCC0E1AC-D470-4327-8277-0716FA3BBBFC";
name = Regular;
paths = (
{
closed = 1;
nodes = (
"1408 -128 LINE",
"1408 -256 LINE",
"1664 -256 LINE",
"1664 -128 LINE"
);
},
{
closed = 1;
nodes = (
"256 -128 LINE",
"256 -256 LINE",
"512 -256 LINE",
"512 -128 LINE"
);
},
{
closed = 1;
nodes = (
"640 -128 LINE",
"640 -256 LINE",
"896 -256 LINE",
"896 -128 LINE"
);
},
{
closed = 1;
nodes = (
"1024 -128 LINE",
"1024 -256 LINE",
"1280 -256 LINE",
"1280 -128 LINE"
);
}
);
width = 2048;
}
);
unicode = E064;
},
{
glyphname = uniE065;
lastChange = "2014-02-12 19:04:05 -0500";
layers = (
{
layerId = "CCC0E1AC-D470-4327-8277-0716FA3BBBFC";
name = Regular;
paths = (
{
closed = 1;
nodes = (
"597.193 1408 OFFCURVE",
"256 1058 OFFCURVE",
"256 626.256 CURVE SMOOTH",
"256 465.103 OFFCURVE",
"303.541 315.346 OFFCURVE",
"385.013 190.921 CURVE",
"385.013 93.38 LINE SMOOTH",
"385.013 -23 OFFCURVE",
"483.662 -119 OFFCURVE",
"610.04 -130 CURVE",
"610.04 435.174 LINE",
"549.126 429.671 OFFCURVE",
"494.654 404.603 OFFCURVE",
"454.566 367.075 CURVE",
"434 413 OFFCURVE",
"401 508 OFFCURVE",
"400.975 626.256 CURVE SMOOTH",
"401 874 OFFCURVE",
"593 1261 OFFCURVE",
"1018.08 1261.02 CURVE SMOOTH",
"1441 1261 OFFCURVE",
"1635 880 OFFCURVE",
"1635.18 626.256 CURVE SMOOTH",
"1635 512 OFFCURVE",
"1605 421 OFFCURVE",
"1581.59 367.073 CURVE",
"1541.5 404.602 OFFCURVE",
"1487.03 429.671 OFFCURVE",
"1426.11 435.174 CURVE",
"1426.11 -130 LINE",
"1552.49 -119 OFFCURVE",
"1651.14 -23 OFFCURVE",
"1651.14 93.38 CURVE SMOOTH",
"1651.14 190.949 LINE",
"1732.61 315.367 OFFCURVE",
"1780.15 465.11 OFFCURVE",
"1780.15 626.256 CURVE SMOOTH",
"1780.15 1058 OFFCURVE",
"1438.96 1408 OFFCURVE",
"1018.08 1408 CURVE SMOOTH"
);
},
{
closed = 1;
nodes = (
"706.04 436.324 LINE",
"706.04 -131 LINE",
"781.053 -131 LINE",
"781.053 435.784 LINE"
);
},
{
closed = 1;
nodes = (
"1255.1 435.784 LINE",
"1255.1 -131 LINE",
"1330.11 -131 LINE",
"1330.11 436.324 LINE"
);
}
);
width = 2048;
}
);
unicode = E065;
},
{
glyphname = uniE066;
lastChange = "2014-02-12 16:51:01 -0500";
layers = (
{
layerId = "CCC0E1AC-D470-4327-8277-0716FA3BBBFC";
name = Regular;
paths = (
{
closed = 1;
nodes = (
"512 896 LINE",
"256 896 LINE",
"256 128 LINE",
"512 128 LINE",
"896 -256 LINE",
"896 1280 LINE"
);
},
{
closed = 1;
nodes = (
"1023.82 737.973 LINE",
"1086.07 677.746 OFFCURVE",
"1124.84 593.392 OFFCURVE",
"1124.84 500.142 CURVE SMOOTH",
"1124.84 406.892 OFFCURVE",
"1086.07 322.537 OFFCURVE",
"1023.82 262.31 CURVE",
"1023.82 73 LINE",
"1065.25 95.3135 OFFCURVE",
"1103.12 123.506 OFFCURVE",
"1136.78 157.166 CURVE SMOOTH",
"1181.3 201.686 OFFCURVE",
"1216.26 253.551 OFFCURVE",
"1240.69 311.318 CURVE SMOOTH",
"1266.01 371.166 OFFCURVE",
"1278.84 434.695 OFFCURVE",
"1278.84 500.142 CURVE SMOOTH",
"1278.84 565.588 OFFCURVE",
"1266.01 629.117 OFFCURVE",
"1240.69 688.965 CURVE SMOOTH",
"1216.26 746.732 OFFCURVE",
"1181.3 798.597 OFFCURVE",
"1136.78 843.117 CURVE SMOOTH",
"1103.12 876.777 OFFCURVE",
"1065.25 904.97 OFFCURVE",
"1023.82 927.284 CURVE"
);
},
{
closed = 1;
nodes = (
"1278.84 885.316 LINE",
"1386.34 791.558 OFFCURVE",
"1454.37 653.648 OFFCURVE",
"1454.37 500.142 CURVE SMOOTH",
"1454.37 346.636 OFFCURVE",
"1386.34 208.726 OFFCURVE",
"1278.84 114.967 CURVE",
"1278.84 -74 LINE",
"1327.83 -46 OFFCURVE",
"1372.94 -11 OFFCURVE",
"1413.58 29.874 CURVE SMOOTH",
"1474.63 90.9277 OFFCURVE",
"1522.58 162.044 OFFCURVE",
"1556.08 241.247 CURVE SMOOTH",
"1590.78 323.289 OFFCURVE",
"1608.37 410.394 OFFCURVE",
"1608.37 500.142 CURVE SMOOTH",
"1608.37 589.89 OFFCURVE",
"1590.78 676.994 OFFCURVE",
"1556.08 759.036 CURVE SMOOTH",
"1522.58 838.239 OFFCURVE",
"1474.63 909.356 OFFCURVE",
"1413.58 970.409 CURVE SMOOTH",
"1372.94 1011.05 OFFCURVE",
"1327.83 1045.88 OFFCURVE",
"1278.84 1074.51 CURVE"
);
},
{
closed = 1;
nodes = (
"1535.37 1113.96 LINE",
"1700.16 960.82 OFFCURVE",
"1803.41 742.312 OFFCURVE",
"1803.41 500.142 CURVE SMOOTH",
"1803.41 257.971 OFFCURVE",
"1700.16 39.4629 OFFCURVE",
"1535.37 -114 CURVE",
"1535.37 -312 LINE",
"1582.03 -279 OFFCURVE",
"1625.95 -242 OFFCURVE",
"1666.83 -201 CURVE SMOOTH",
"1757.92 -110 OFFCURVE",
"1829.44 -4 OFFCURVE",
"1879.41 113.951 CURVE SMOOTH",
"1931.17 236.311 OFFCURVE",
"1957.41 366.244 OFFCURVE",
"1957.41 500.142 CURVE SMOOTH",
"1957.41 634.039 OFFCURVE",
"1931.17 763.973 OFFCURVE",
"1879.41 886.332 CURVE SMOOTH",
"1829.44 1004.48 OFFCURVE",
"1757.92 1110.57 OFFCURVE",
"1666.83 1201.66 CURVE SMOOTH",
"1625.95 1242.54 OFFCURVE",
"1582.03 1279.47 OFFCURVE",
"1535.37 1312.29 CURVE"
);
}
);
width = 2048;
}
);
unicode = E066;
},
{
glyphname = uniE067;
lastChange = "2014-02-12 16:51:05 -0500";
layers = (
{
layerId = "CCC0E1AC-D470-4327-8277-0716FA3BBBFC";
name = Regular;
paths = (
{
closed = 1;
nodes = (
"512 896 LINE",
"256 896 LINE",
"256 128 LINE",
"512 128 LINE",
"896 -256 LINE",
"896 1280 LINE"
);
},
{
closed = 1;
nodes = (
"1023.82 737.973 LINE",
"1086.07 677.746 OFFCURVE",
"1124.84 593.392 OFFCURVE",
"1124.84 500.142 CURVE SMOOTH",
"1124.84 406.892 OFFCURVE",
"1086.07 322.537 OFFCURVE",
"1023.82 262.31 CURVE",
"1023.82 73 LINE",
"1065.25 95.3135 OFFCURVE",
"1103.12 123.506 OFFCURVE",
"1136.78 157.166 CURVE SMOOTH",
"1181.3 201.686 OFFCURVE",
"1216.26 253.551 OFFCURVE",
"1240.69 311.318 CURVE SMOOTH",
"1266.01 371.166 OFFCURVE",
"1278.84 434.695 OFFCURVE",
"1278.84 500.142 CURVE SMOOTH",
"1278.84 565.588 OFFCURVE",
"1266.01 629.117 OFFCURVE",
"1240.69 688.965 CURVE SMOOTH",
"1216.26 746.732 OFFCURVE",
"1181.3 798.597 OFFCURVE",
"1136.78 843.117 CURVE SMOOTH",
"1103.12 876.777 OFFCURVE",
"1065.25 904.97 OFFCURVE",
"1023.82 927.284 CURVE"
);
},
{
closed = 1;
nodes = (
"1278.84 885.316 LINE",
"1386.34 791.558 OFFCURVE",
"1454.37 653.648 OFFCURVE",
"1454.37 500.142 CURVE SMOOTH",
"1454.37 346.636 OFFCURVE",
"1386.34 208.726 OFFCURVE",
"1278.84 114.967 CURVE",
"1278.84 -74 LINE",
"1327.83 -46 OFFCURVE",
"1372.94 -11 OFFCURVE",
"1413.58 29.874 CURVE SMOOTH",
"1474.63 90.9277 OFFCURVE",
"1522.58 162.044 OFFCURVE",
"1556.08 241.247 CURVE SMOOTH",
"1590.78 323.289 OFFCURVE",
"1608.37 410.394 OFFCURVE",
"1608.37 500.142 CURVE SMOOTH",
"1608.37 589.89 OFFCURVE",
"1590.78 676.994 OFFCURVE",
"1556.08 759.036 CURVE SMOOTH",
"1522.58 838.239 OFFCURVE",
"1474.63 909.356 OFFCURVE",
"1413.58 970.409 CURVE SMOOTH",
"1372.94 1011.05 OFFCURVE",
"1327.83 1045.88 OFFCURVE",
"1278.84 1074.51 CURVE"
);
}
);
width = 2048;
}
);
unicode = E067;
},
{
glyphname = uniE068;
lastChange = "2014-02-12 16:51:09 -0500";
layers = (
{
layerId = "CCC0E1AC-D470-4327-8277-0716FA3BBBFC";
name = Regular;
paths = (
{
closed = 1;
nodes = (
"513.159 896 LINE",
"257.159 896 LINE",
"257.159 128 LINE",
"513.159 128 LINE",
"897.159 -256 LINE",
"897.159 1280 LINE"
);
},
{
closed = 1;
nodes = (
"1267.17 629.117 OFFCURVE",
"1280 565.588 OFFCURVE",
"1280 500.142 CURVE SMOOTH",
"1280 434.695 OFFCURVE",
"1267.17 371.166 OFFCURVE",
"1241.85 311.318 CURVE SMOOTH",
"1217.42 253.551 OFFCURVE",
"1182.46 201.686 OFFCURVE",
"1137.93 157.166 CURVE SMOOTH",
"1104.27 123.506 OFFCURVE",
"1066.41 95.3135 OFFCURVE",
"1024.98 73 CURVE",
"1024.98 262.31 LINE",
"1087.23 322.537 OFFCURVE",
"1126 406.892 OFFCURVE",
"1126 500.142 CURVE SMOOTH",
"1126 593.392 OFFCURVE",
"1087.23 677.746 OFFCURVE",
"1024.98 737.973 CURVE",
"1024.98 927.284 LINE",
"1066.41 904.97 OFFCURVE",
"1104.27 876.777 OFFCURVE",
"1137.93 843.117 CURVE SMOOTH",
"1182.46 798.597 OFFCURVE",
"1217.42 746.732 OFFCURVE",
"1241.85 688.965 CURVE SMOOTH"
);
}
);
width = 2048;
}
);
unicode = E068;
},
{
glyphname = uniE069;
lastChange = "2014-02-12 16:51:14 -0500";
layers = (
{
layerId = "CCC0E1AC-D470-4327-8277-0716FA3BBBFC";
name = Regular;
paths = (
{
closed = 1;
nodes = (
"512 896 LINE",
"256 896 LINE",
"256 128 LINE",
"512 128 LINE",
"896 -256 LINE",
"896 1280 LINE"
);
},
{
closed = 1;
nodes = (
"1470.28 752.471 LINE",
"1198.75 1024 LINE",
"1020.56 845.809 LINE",
"1292.09 574.28 LINE",
"1020.56 302.752 LINE",
"1198.75 124.561 LINE",
"1470.28 396.09 LINE",
"1741.81 124.561 LINE",
"1920 302.751 LINE",
"1648.47 574.28 LINE",
"1920 845.81 LINE",
"1741.81 1024 LINE"
);
}
);
width = 2048;
}
);
unicode = E069;
},
{
glyphname = uniE070;
lastChange = "2014-02-12 16:50:54 -0500";
layers = (
{
layerId = "CCC0E1AC-D470-4327-8277-0716FA3BBBFC";
name = Regular;
paths = (
{
closed = 1;
nodes = (
"512 1152 LINE",
"512 256 LINE",
"896 -256 LINE",
"1152 -256 LINE",
"1536 255.999 LINE",
"1536 1152 LINE"
);
},
{
closed = 1;
nodes = (
"1094.69 256 OFFCURVE",
"1152 198.693 OFFCURVE",
"1152 128.001 CURVE SMOOTH",
"1152 57.3086 OFFCURVE",
"1094.69 0 OFFCURVE",
"1024 0 CURVE SMOOTH",
"953.308 0 OFFCURVE",
"896 57.3086 OFFCURVE",
"896 128.001 CURVE SMOOTH",
"896 198.693 OFFCURVE",
"953.308 256 OFFCURVE",
"1024 256 CURVE SMOOTH"
);
}
);
width = 2048;
}
);
unicode = E070;
},
{
glyphname = uniE071;
lastChange = "2014-02-12 16:50:49 -0500";
layers = (
{
layerId = "CCC0E1AC-D470-4327-8277-0716FA3BBBFC";
name = Regular;
paths = (
{
closed = 1;
nodes = (
"512 1152 LINE",
"512 255.999 LINE",
"896 -256 LINE",
"1152 -256 LINE",
"1536 255.998 LINE",
"1536 1152 LINE"
);
},
{
closed = 1;
nodes = (
"1094.69 255.999 OFFCURVE",
"1152 198.692 OFFCURVE",
"1152 127.999 CURVE SMOOTH",
"1152 57.3071 OFFCURVE",
"1094.69 0 OFFCURVE",
"1024 0 CURVE SMOOTH",
"953.308 0 OFFCURVE",
"896 57.3071 OFFCURVE",
"896 127.999 CURVE SMOOTH",
"896 198.692 OFFCURVE",
"953.308 255.999 OFFCURVE",
"1024 255.999 CURVE SMOOTH"
);
},
{
closed = 1;
nodes = (
"1280 895.998 LINE",
"1408 895.998 LINE",
"1408 767.998 LINE",
"1280 767.998 LINE",
"1280 639.998 LINE",
"1152 639.998 LINE",
"1152 767.998 LINE",
"1024 767.998 LINE",
"1024 895.998 LINE",
"1152 895.998 LINE",
"1152 1024 LINE",
"1280 1024 LINE"
);
}
);
width = 2048;
}
);
unicode = E071;
},
{
glyphname = uniE072;
lastChange = "2014-02-12 16:50:43 -0500";
layers = (
{
layerId = "CCC0E1AC-D470-4327-8277-0716FA3BBBFC";
name = Regular;
paths = (
{
closed = 1;
nodes = (
"512 1152 LINE",
"512 255.999 LINE",
"896 -256 LINE",
"1152 -256 LINE",
"1536 255.999 LINE",
"1536 1152 LINE"
);
},
{
closed = 1;
nodes = (
"1094.69 256 OFFCURVE",
"1152 198.692 OFFCURVE",
"1152 128 CURVE SMOOTH",
"1152 57.3076 OFFCURVE",
"1094.69 0 OFFCURVE",
"1024 0 CURVE SMOOTH",
"953.308 0 OFFCURVE",
"896 57.3076 OFFCURVE",
"896 128 CURVE SMOOTH",
"896 198.692 OFFCURVE",
"953.308 256 OFFCURVE",
"1024 256 CURVE SMOOTH"
);
},
{
closed = 1;
nodes = (
"1408 767.999 LINE",
"1024 767.999 LINE",
"1024 895.998 LINE",
"1408 895.998 LINE"
);
}
);
width = 2048;
}
);
unicode = E072;
},
{
glyphname = uniE073;
lastChange = "2014-02-12 16:49:57 -0500";
layers = (
{
layerId = "CCC0E1AC-D470-4327-8277-0716FA3BBBFC";
name = Regular;
paths = (
{
closed = 1;
nodes = (
"599.846 1280 OFFCURVE",
"256 936.155 OFFCURVE",
"256 512 CURVE SMOOTH",
"256 87.8457 OFFCURVE",
"599.846 -256 OFFCURVE",
"1024 -256 CURVE SMOOTH",
"1203.6 -256 OFFCURVE",
"1368.79 -194 OFFCURVE",
"1499.59 -91 CURVE",
"1318.37 93.04 LINE",
"1235.1 34.4258 OFFCURVE",
"1133.57 0 OFFCURVE",
"1024 0 CURVE SMOOTH",
"741.231 0 OFFCURVE",
"512 229.23 OFFCURVE",
"512 512 CURVE SMOOTH",
"512 794.769 OFFCURVE",
"741.231 1024 OFFCURVE",
"1024 1024 CURVE SMOOTH",
"1196.32 1024 OFFCURVE",
"1348.74 938.854 OFFCURVE",
"1441.53 808.352 CURVE",
"1274.08 696.234 LINE",
"1790.65 482.203 LINE",
"1789.54 1041.35 LINE",
"1654.32 950.822 LINE",
"1515.54 1149.8 OFFCURVE",
"1284.99 1280 OFFCURVE",
"1024 1280 CURVE SMOOTH"
);
}
);
width = 2048;
}
);
unicode = E073;
},
{
glyphname = uniE074;
lastChange = "2014-02-12 16:56:39 -0500";
layers = (
{
layerId = "CCC0E1AC-D470-4327-8277-0716FA3BBBFC";
name = Regular;
paths = (
{
closed = 1;
nodes = (
"670.538 1152 OFFCURVE",
"384 865.462 OFFCURVE",
"384 512 CURVE SMOOTH",
"384 158.537 OFFCURVE",
"670.538 -128 OFFCURVE",
"1024 -128 CURVE SMOOTH",
"1286.44 -128 OFFCURVE",
"1511.98 29.9639 OFFCURVE",
"1610.74 255.999 CURVE",
"1595.5 255.999 LINE",
"1506.97 102.964 OFFCURVE",
"1341.51 0 OFFCURVE",
"1152 0 CURVE SMOOTH",
"869.231 0 OFFCURVE",
"640 229.23 OFFCURVE",
"640 512 CURVE SMOOTH",
"640 724.077 OFFCURVE",
"811.923 896 OFFCURVE",
"1024 896 CURVE SMOOTH",
"1191.2 896 OFFCURVE",
"1333.43 789.144 OFFCURVE",
"1386.15 640 CURVE",
"1651.19 640 LINE",
"1591.89 932.125 OFFCURVE",
"1333.63 1152 OFFCURVE",
"1024 1152 CURVE SMOOTH"
);
}
);
width = 2048;
}
);
unicode = E074;
},
{
glyphname = uniE075;
lastChange = "2014-02-12 16:48:36 -0500";
layers = (
{
layerId = "CCC0E1AC-D470-4327-8277-0716FA3BBBFC";
name = Regular;
paths = (
{
closed = 1;
nodes = (
"256 1114.94 LINE",
"943.356 1114.94 OFFCURVE",
"1502.56 555.747 OFFCURVE",
"1502.56 -132 CURVE",
"1795.62 -132 LINE",
"1795.62 76.1836 OFFCURVE",
"1754.9 277.823 OFFCURVE",
"1674.57 467.726 CURVE SMOOTH",
"1635.97 558.984 OFFCURVE",
"1588.2 646.993 OFFCURVE",
"1532.59 729.304 CURVE SMOOTH",
"1477.54 810.796 OFFCURVE",
"1414.31 887.424 OFFCURVE",
"1344.68 957.058 CURVE SMOOTH",
"1275.04 1026.69 OFFCURVE",
"1198.41 1089.92 OFFCURVE",
"1116.92 1144.97 CURVE SMOOTH",
"1034.6 1200.58 OFFCURVE",
"946.594 1248.35 OFFCURVE",
"855.334 1286.95 CURVE SMOOTH",
"665.424 1367.27 OFFCURVE",
"463.78 1408 OFFCURVE",
"256 1408 CURVE"
);
},
{
closed = 1;
nodes = (
"374.682 398.352 OFFCURVE",
"256 279.703 OFFCURVE",
"256 133.378 CURVE SMOOTH",
"256 -13 OFFCURVE",
"374.682 -132 OFFCURVE",
"520.971 -132 CURVE SMOOTH",
"667.334 -132 OFFCURVE",
"785.94 -13 OFFCURVE",
"785.94 133.378 CURVE SMOOTH",
"785.94 279.703 OFFCURVE",
"667.334 398.352 OFFCURVE",
"520.971 398.352 CURVE SMOOTH"
);
},
{
closed = 1;
nodes = (
"256 658.227 LINE",
"691.504 658.227 OFFCURVE",
"1045.82 303.918 OFFCURVE",
"1045.82 -132 CURVE",
"1338.88 -132 LINE",
"1338.88 14.5244 OFFCURVE",
"1310.22 156.349 OFFCURVE",
"1253.72 289.945 CURVE SMOOTH",
"1199.17 418.91 OFFCURVE",
"1121.11 534.704 OFFCURVE",
"1021.71 634.106 CURVE SMOOTH",
"922.31 733.512 OFFCURVE",
"806.519 811.575 OFFCURVE",
"677.555 866.125 CURVE SMOOTH",
"543.954 922.637 OFFCURVE",
"402.124 951.289 OFFCURVE",
"256 951.289 CURVE"
);
}
);
width = 2048;
}
);
unicode = E075;
},
{
glyphname = uniE076;
lastChange = "2014-02-12 16:55:00 -0500";
layers = (
{
layerId = "CCC0E1AC-D470-4327-8277-0716FA3BBBFC";
name = Regular;
paths = (
{
closed = 1;
nodes = (
"770.048 732.676 LINE",
"508.448 988.887 LINE",
"414.121 892.576 LINE",
"742.875 570.594 LINE",
"401.471 236.311 LINE",
"495.81 140.013 LINE",
"770.048 408.53 LINE",
"770.048 -256 LINE",
"1279.29 233.926 LINE",
"935.551 570.581 LINE",
"1280 907.844 LINE",
"770.048 1407.29 LINE"
);
},
{
closed = 1;
nodes = (
"1085.76 234.768 LINE",
"904.856 60.7207 LINE",
"904.856 411.95 LINE"
);
},
{
closed = 1;
nodes = (
"1087.32 907.856 LINE",
"904.856 729.195 LINE",
"904.856 1086.57 LINE"
);
}
);
width = 2048;
}
);
unicode = E076;
},
{
glyphname = uniE077;
lastChange = "2014-02-12 16:51:45 -0500";
layers = (
{
layerId = "CCC0E1AC-D470-4327-8277-0716FA3BBBFC";
name = Regular;
paths = (
{
closed = 1;
nodes = (
"768 1022 LINE",
"896 1022 LINE",
"896 234.046 LINE",
"580.084 452.722 LINE",
"580.084 661.047 LINE",
"616.57 683.599 OFFCURVE",
"640.885 723.957 OFFCURVE",
"640.885 770 CURVE SMOOTH",
"640.885 840.692 OFFCURVE",
"583.578 898 OFFCURVE",
"512.885 898 CURVE SMOOTH",
"442.193 898 OFFCURVE",
"384.885 840.692 OFFCURVE",
"384.885 770 CURVE SMOOTH",
"384.885 721.313 OFFCURVE",
"412.068 678.979 OFFCURVE",
"452.085 657.337 CURVE",
"452.085 385.649 LINE",
"884.25 86.5059 LINE",
"814.262 40.8159 OFFCURVE",
"767.999 -38 OFFCURVE",
"767.999 -128 CURVE SMOOTH",
"767.999 -269 OFFCURVE",
"882.614 -384 OFFCURVE",
"1024 -384 CURVE SMOOTH",
"1165.38 -384 OFFCURVE",
"1280 -269 OFFCURVE",
"1280 -128 CURVE SMOOTH",
"1280 -33 OFFCURVE",
"1228.52 49.4795 OFFCURVE",
"1152 93.7437 CURVE",
"1152 210.298 LINE",
"1596.55 518.014 LINE",
"1596.55 770 LINE",
"1664 770 LINE",
"1664 1026 LINE",
"1408 1026 LINE",
"1408 770 LINE",
"1468.55 770 LINE",
"1468.55 585.086 LINE",
"1152 365.972 LINE",
"1152 1022 LINE",
"1280 1022 LINE",
"1024 1406 LINE"
);
}
);
width = 2048;
}
);
unicode = E077;
},
{
glyphname = uniE078;
lastChange = "2014-02-12 19:05:40 -0500";
layers = (
{
layerId = "CCC0E1AC-D470-4327-8277-0716FA3BBBFC";
name = Regular;
paths = (
{
closed = 1;
nodes = (
"853 1280 OFFCURVE",
"811 1148 OFFCURVE",
"811 1072 CURVE SMOOTH",
"811 965 OFFCURVE",
"867 812 OFFCURVE",
"927.795 690.905 CURVE",
"890 585 OFFCURVE",
"836 442 OFFCURVE",
"791.318 345.269 CURVE",
"571 272 OFFCURVE",
"256 103 OFFCURVE",
"256 -113 CURVE SMOOTH",
"256 -199 OFFCURVE",
"313 -256 OFFCURVE",
"390.939 -256 CURVE SMOOTH",
"603 -256 OFFCURVE",
"802 92 OFFCURVE",
"873.212 238.659 CURVE",
"977.071 270.158 OFFCURVE",
"1084.12 293.943 OFFCURVE",
"1189.83 318.425 CURVE",
"1296 212 OFFCURVE",
"1455 108 OFFCURVE",
"1588.78 107.886 CURVE SMOOTH",
"1714.76 107.886 OFFCURVE",
"1792 213.867 OFFCURVE",
"1792 333.137 CURVE SMOOTH",
"1792 554 OFFCURVE",
"1521 521 OFFCURVE",
"1227.7 456.969 CURVE",
"1165.81 527.058 OFFCURVE",
"1107.63 610.838 OFFCURVE",
"1057.5 702.088 CURVE",
"1101 831 OFFCURVE",
"1145 987 OFFCURVE",
"1135 1093 CURVE SMOOTH",
"1126 1192 OFFCURVE",
"1063 1280 OFFCURVE",
"969.531 1280 CURVE SMOOTH"
);
},
{
closed = 1;
nodes = (
"564.935 -61 OFFCURVE",
"442.408 -129 OFFCURVE",
"390.911 -129 CURVE SMOOTH",
"385 -129 OFFCURVE",
"376 -123 OFFCURVE",
"376 -107 CURVE SMOOTH",
"376 -72 OFFCURVE",
"417 -17 OFFCURVE",
"459 23 CURVE SMOOTH",
"504 66 OFFCURVE",
"580 123 OFFCURVE",
"704.204 176.951 CURVE"
);
},
{
closed = 1;
nodes = (
"1032.86 511.054 OFFCURVE",
"1063.44 465.896 OFFCURVE",
"1094.19 426.72 CURVE",
"1043.59 411.219 OFFCURVE",
"991 401 OFFCURVE",
"940 388 CURVE",
"963 443 OFFCURVE",
"984.914 499.018 OFFCURVE",
"1004.99 555.225 CURVE"
);
},
{
closed = 1;
nodes = (
"1471 376 OFFCURVE",
"1682 409 OFFCURVE",
"1682 323 CURVE SMOOTH",
"1682 284 OFFCURVE",
"1643 235 OFFCURVE",
"1589 235 CURVE SMOOTH",
"1510 235 OFFCURVE",
"1401 300 OFFCURVE",
"1338.24 350.085 CURVE"
);
},
{
closed = 1;
nodes = (
"1010 1153 OFFCURVE",
"1018 1083 OFFCURVE",
"1018 1059 CURVE SMOOTH",
"1018 1011 OFFCURVE",
"1007 946 OFFCURVE",
"982.51 860.472 CURVE",
"946 951 OFFCURVE",
"929 1027 OFFCURVE",
"929 1072 CURVE SMOOTH",
"929 1096 OFFCURVE",
"940 1153 OFFCURVE",
"969.531 1152.71 CURVE SMOOTH"
);
}
);
width = 2048;
}
);
unicode = E078;
},
{
glyphname = uniE079;
lastChange = "2014-02-12 16:52:34 -0500";
layers = (
{
layerId = "CCC0E1AC-D470-4327-8277-0716FA3BBBFC";
name = Regular;
paths = (
{
closed = 1;
nodes = (
"449.616 1280.92 LINE SMOOTH",
"342.685 1280.92 OFFCURVE",
"256 1194.24 OFFCURVE",
"256 1087.31 CURVE SMOOTH",
"256 -62 LINE SMOOTH",
"256 -169 OFFCURVE",
"342.685 -256 OFFCURVE",
"449.616 -256 CURVE SMOOTH",
"1599.31 -256 LINE SMOOTH",
"1706.24 -256 OFFCURVE",
"1792.92 -169 OFFCURVE",
"1792.92 -62 CURVE SMOOTH",
"1792.92 512.712 LINE",
"1600.81 512.712 LINE",
"1600.81 -63 LINE",
"448.115 -63 LINE",
"448.115 1087.68 LINE",
"1024.46 1087.68 LINE",
"1024.46 1280.92 LINE"
);
},
{
closed = 1;
nodes = (
"1216.58 1087.36 LINE",
"1216.58 1087.36 OFFCURVE",
"1355.58 1087.36 OFFCURVE",
"1462.46 1087.36 CURVE",
"1178.25 803.148 LINE",
"1315.2 666.208 LINE",
"1599.4 950.416 LINE",
"1599.4 708.479 LINE",
"1792.92 708.486 LINE",
"1792.65 1280.54 LINE",
"1216.51 1280.81 LINE"
);
}
);
width = 2048;
}
);
unicode = E079;
},
{
glyphname = uniE080;
lastChange = "2014-02-12 16:48:59 -0500";
layers = (
{
layerId = "CCC0E1AC-D470-4327-8277-0716FA3BBBFC";
name = Regular;
paths = (
{
closed = 1;
nodes = (
"1039.27 1022.46 OFFCURVE",
"932.104 887.675 OFFCURVE",
"912.875 751.011 CURVE",
"752 880 OFFCURVE",
"552 912 OFFCURVE",
"432 912 CURVE SMOOTH",
"352 912 OFFCURVE",
"304 896 OFFCURVE",
"299.885 892.167 CURVE",
"288 896 OFFCURVE",
"280 896 OFFCURVE",
"272 896 CURVE SMOOTH",
"232 896 OFFCURVE",
"224 888 OFFCURVE",
"216 864 CURVE SMOOTH",
"216 840 LINE SMOOTH",
"216 840 OFFCURVE",
"216 832 OFFCURVE",
"217.396 831.435 CURVE",
"216 832 OFFCURVE",
"208 832 OFFCURVE",
"208 832 CURVE SMOOTH",
"176 832 OFFCURVE",
"136 808 OFFCURVE",
"136 784 CURVE SMOOTH",
"136 776 OFFCURVE",
"136 768 OFFCURVE",
"157.383 764.327 CURVE",
"298.736 748.727 OFFCURVE",
"415.303 493.658 OFFCURVE",
"429.065 430.043 CURVE",
"451.541 381.843 OFFCURVE",
"478.48 343.985 OFFCURVE",
"508.238 313.948 CURVE",
"408.461 310.093 OFFCURVE",
"286.486 335.987 OFFCURVE",
"189.52 454.68 CURVE",
"184 464 OFFCURVE",
"176 472 OFFCURVE",
"168 472 CURVE SMOOTH",
"144 472 OFFCURVE",
"128 408 OFFCURVE",
"128 376 CURVE SMOOTH",
"128 376 OFFCURVE",
"128 368 OFFCURVE",
"129.287 367.111 CURVE",
"128 344 OFFCURVE",
"480 -256 OFFCURVE",
"1016 -256 CURVE SMOOTH",
"1048 -256 OFFCURVE",
"1080 -256 OFFCURVE",
"1118.59 -248 CURVE SMOOTH",
"1530.62 -154 OFFCURVE",
"1583.12 99.1357 OFFCURVE",
"1583.75 415.011 CURVE",
"1640 488 OFFCURVE",
"1688 576 OFFCURVE",
"1688 688 CURVE SMOOTH",
"1688 696 OFFCURVE",
"1688 704 OFFCURVE",
"1684.43 711.229 CURVE",
"1722.72 732.837 OFFCURVE",
"1754.46 764.503 OFFCURVE",
"1782.83 802.438 CURVE",
"1831.15 856.985 OFFCURVE",
"1920 831.302 OFFCURVE",
"1920 862.612 CURVE",
"1904 896 OFFCURVE",
"1792 928 OFFCURVE",
"1688 928 CURVE SMOOTH",
"1672 928 OFFCURVE",
"1656 928 OFFCURVE",
"1639.9 927.105 CURVE SMOOTH",
"1625.92 925.847 OFFCURVE",
"1613.67 924.042 OFFCURVE",
"1602.73 921.848 CURVE",
"1536 1024 OFFCURVE",
"1416 1088 OFFCURVE",
"1296 1088 CURVE SMOOTH",
"1256 1088 OFFCURVE",
"1216 1080 OFFCURVE",
"1179.54 1067.84 CURVE SMOOTH"
);
},
{
closed = 1;
nodes = (
"1328 968 OFFCURVE",
"1336 968 OFFCURVE",
"1344 968 CURVE SMOOTH",
"1376 968 OFFCURVE",
"1416 944 OFFCURVE",
"1416 896 CURVE SMOOTH",
"1416 856 OFFCURVE",
"1384 824 OFFCURVE",
"1336 824 CURVE SMOOTH",
"1304 824 OFFCURVE",
"1264 848 OFFCURVE",
"1264 896 CURVE SMOOTH",
"1264 928 OFFCURVE",
"1288 952 OFFCURVE",
"1316.93 965.289 CURVE SMOOTH"
);
}
);
width = 2048;
}
);
unicode = E080;
},
{
glyphname = uniE081;
lastChange = "2014-02-12 16:52:26 -0500";
layers = (
{
layerId = "CCC0E1AC-D470-4327-8277-0716FA3BBBFC";
name = Regular;
paths = (
{
closed = 1;
nodes = (
"1168 1280 OFFCURVE",
"1144 1272 OFFCURVE",
"1120 1264 CURVE SMOOTH",
"1096 1256 OFFCURVE",
"1072 1240 OFFCURVE",
"1056 1216 CURVE SMOOTH",
"1032 1176 OFFCURVE",
"1016 1136 OFFCURVE",
"1016 1072 CURVE SMOOTH",
"1016 808 LINE",
"896 624 LINE",
"256 624 LINE",
"384 -128 LINE",
"904 -128 LINE",
"904 -88 LINE",
"960 -120 LINE",
"984 -136 LINE",
"1632 -136 LINE SMOOTH",
"1664 -136 OFFCURVE",
"1688 -128 OFFCURVE",
"1712 -120 CURVE SMOOTH",
"1736 -112 OFFCURVE",
"1752 -104 OFFCURVE",
"1776 -88 CURVE SMOOTH",
"1816 -56 OFFCURVE",
"1840 -16 OFFCURVE",
"1856 32 CURVE SMOOTH",
"1864 56 OFFCURVE",
"1864 80 OFFCURVE",
"1856 104 CURVE SMOOTH",
"1856 120 OFFCURVE",
"1856 128 OFFCURVE",
"1848 144 CURVE",
"1864 144 OFFCURVE",
"1872 152 OFFCURVE",
"1872 160 CURVE SMOOTH",
"1928 208 OFFCURVE",
"1952 264 OFFCURVE",
"1952 328 CURVE SMOOTH",
"1952 352 OFFCURVE",
"1952 376 OFFCURVE",
"1944 392 CURVE",
"1960 416 OFFCURVE",
"1968 432 OFFCURVE",
"1976 456 CURVE SMOOTH",
"1984 480 OFFCURVE",
"1992 504 OFFCURVE",
"1992 536 CURVE SMOOTH",
"1992 592 OFFCURVE",
"1968 640 OFFCURVE",
"1928 680 CURVE SMOOTH",
"1904 704 OFFCURVE",
"1856 736 OFFCURVE",
"1768 736 CURVE SMOOTH",
"1496 736 LINE",
"1496 752 LINE SMOOTH",
"1504 808 OFFCURVE",
"1512 848 OFFCURVE",
"1504 896 CURVE SMOOTH",
"1496 976 OFFCURVE",
"1472 1040 OFFCURVE",
"1440 1096 CURVE SMOOTH",
"1440 1104 OFFCURVE",
"1432 1104 OFFCURVE",
"1432 1112 CURVE SMOOTH",
"1408 1160 OFFCURVE",
"1376 1200 OFFCURVE",
"1336 1224 CURVE SMOOTH",
"1312 1240 OFFCURVE",
"1288 1256 OFFCURVE",
"1272 1264 CURVE SMOOTH",
"1240 1272 OFFCURVE",
"1216 1280 OFFCURVE",
"1192 1280 CURVE SMOOTH"
);
},
{
closed = 1;
nodes = (
"1240 1168 OFFCURVE",
"1304 1120 OFFCURVE",
"1336 1064 CURVE SMOOTH",
"1384 960 OFFCURVE",
"1448 872 OFFCURVE",
"1344 624 CURVE",
"1768 624 LINE SMOOTH",
"1944 624 OFFCURVE",
"1888 408 OFFCURVE",
"1768 408 CURVE",
"1888 408 OFFCURVE",
"1880 192 OFFCURVE",
"1664 192 CURVE SMOOTH",
"1816 112 OFFCURVE",
"1752 -24 OFFCURVE",
"1632 -24 CURVE SMOOTH",
"1016 -24 LINE",
"904 48 LINE",
"904 456 LINE",
"1120 776 LINE",
"1120 1072 LINE SMOOTH",
"1120 1144 OFFCURVE",
"1152 1168 OFFCURVE",
"1192 1168 CURVE SMOOTH"
);
}
);
width = 2048;
}
);
unicode = E081;
},
{
glyphname = uniE082;
lastChange = "2014-02-12 19:00:37 -0500";
layers = (
{
layerId = "CCC0E1AC-D470-4327-8277-0716FA3BBBFC";
name = Regular;
paths = (
{
closed = 1;
nodes = (
"611.604 764.711 LINE",
"611.604 133.999 LINE SMOOTH",
"611.604 60.87 OFFCURVE",
"672.727 1.618 OFFCURVE",
"748.167 1.618 CURVE SMOOTH",
"793.688 1.618 LINE",
"793.688 -168 LINE SMOOTH",
"793.688 -216 OFFCURVE",
"834.664 -256 OFFCURVE",
"884.731 -256 CURVE SMOOTH",
"934.782 -256 OFFCURVE",
"975.771 -216 OFFCURVE",
"975.771 -168 CURVE SMOOTH",
"975.771 1.618 LINE",
"1066.81 1.618 LINE",
"1066.81 -168 LINE SMOOTH",
"1066.81 -216 OFFCURVE",
"1107.79 -256 OFFCURVE",
"1157.86 -256 CURVE SMOOTH",
"1207.91 -256 OFFCURVE",
"1248.9 -216 OFFCURVE",
"1248.9 -168 CURVE SMOOTH",
"1248.9 1.618 LINE",
"1294.42 1.618 LINE SMOOTH",
"1369.85 1.618 OFFCURVE",
"1430.98 60.87 OFFCURVE",
"1430.98 133.999 CURVE SMOOTH",
"1430.98 764.711 LINE"
);
},
{
closed = 1;
nodes = (
"424.975 843.291 OFFCURVE",
"384 803.559 OFFCURVE",
"384 755.035 CURVE SMOOTH",
"384 402.01 LINE SMOOTH",
"384 353.486 OFFCURVE",
"424.975 313.754 OFFCURVE",
"475.042 313.754 CURVE SMOOTH",
"525.093 313.754 OFFCURVE",
"566.084 353.486 OFFCURVE",
"566.084 402.01 CURVE SMOOTH",
"566.084 755.035 LINE SMOOTH",
"566.084 803.559 OFFCURVE",
"525.093 843.291 OFFCURVE",
"475.042 843.291 CURVE SMOOTH"
);
},
{
closed = 1;
nodes = (
"872 1048 OFFCURVE",
"904 1016 OFFCURVE",
"904 984 CURVE SMOOTH",
"904 952 OFFCURVE",
"872 920 OFFCURVE",
"840 920 CURVE SMOOTH",
"800 920 OFFCURVE",
"776 952 OFFCURVE",
"776 984 CURVE SMOOTH",
"776 1016 OFFCURVE",
"800 1048 OFFCURVE",
"840 1048 CURVE SMOOTH"
);
},
{
closed = 1;
nodes = (
"1224 1328 CURVE",
"1168 1224 LINE",
"1120 1240 OFFCURVE",
"1072 1248 OFFCURVE",
"1024 1248 CURVE SMOOTH",
"968 1248 OFFCURVE",
"920 1240 OFFCURVE",
"872 1224 CURVE",
"816 1328 LINE SMOOTH",
"808 1343 OFFCURVE",
"787 1329 OFFCURVE",
"792 1320 CURVE SMOOTH",
"856 1216 LINE",
"720 1160 OFFCURVE",
"632 1040 OFFCURVE",
"616 896 CURVE",
"1432 896 LINE",
"1416 1040 OFFCURVE",
"1320 1160 OFFCURVE",
"1192 1216 CURVE",
"1248 1320 LINE SMOOTH",
"1254 1331 OFFCURVE",
"1232 1341 OFFCURVE"
);
},
{
closed = 1;
nodes = (
"1517.48 843.291 OFFCURVE",
"1476.5 803.559 OFFCURVE",
"1476.5 755.035 CURVE SMOOTH",
"1476.5 402.01 LINE SMOOTH",
"1476.5 353.486 OFFCURVE",
"1517.48 313.754 OFFCURVE",
"1567.55 313.754 CURVE SMOOTH",
"1617.6 313.754 OFFCURVE",
"1658.59 353.486 OFFCURVE",
"1658.59 402.01 CURVE SMOOTH",
"1658.59 755.035 LINE SMOOTH",
"1658.59 803.559 OFFCURVE",
"1617.6 843.291 OFFCURVE",
"1567.55 843.291 CURVE SMOOTH"
);
},
{
closed = 1;
nodes = (
"1240 1048 OFFCURVE",
"1272 1016 OFFCURVE",
"1272 984 CURVE SMOOTH",
"1272 952 OFFCURVE",
"1240 920 OFFCURVE",
"1200 920 CURVE SMOOTH",
"1168 920 OFFCURVE",
"1136 952 OFFCURVE",
"1136 984 CURVE SMOOTH",
"1136 1016 OFFCURVE",
"1168 1048 OFFCURVE",
"1200 1048 CURVE SMOOTH"
);
}
);
width = 2048;
}
);
unicode = E082;
},
{
glyphname = uniE083;
lastChange = "2014-02-12 16:55:22 -0500";
layers = (
{
layerId = "CCC0E1AC-D470-4327-8277-0716FA3BBBFC";
name = Regular;
paths = (
{
closed = 1;
nodes = (
"1384 1008 OFFCURVE",
"1376 1008 OFFCURVE",
"1360 1008 CURVE SMOOTH",
"1248 1008 OFFCURVE",
"1136 928 OFFCURVE",
"1071.7 928.058 CURVE SMOOTH",
"1008 928 OFFCURVE",
"904 1000 OFFCURVE",
"800 1000 CURVE SMOOTH",
"656 1000 OFFCURVE",
"528 920 OFFCURVE",
"453.574 791.955 CURVE SMOOTH",
"408 704 OFFCURVE",
"384 608 OFFCURVE",
"384 504 CURVE SMOOTH",
"384 304 OFFCURVE",
"464 88 OFFCURVE",
"558.938 -46 CURVE SMOOTH",
"628.795 -147 OFFCURVE",
"712.035 -260 OFFCURVE",
"821.361 -256 CURVE SMOOTH",
"926.57 -252 OFFCURVE",
"966.441 -188 OFFCURVE",
"1093.62 -188 CURVE SMOOTH",
"1216 -184 OFFCURVE",
"1256 -256 OFFCURVE",
"1360 -256 CURVE SMOOTH",
"1480 -256 OFFCURVE",
"1552 -152 OFFCURVE",
"1622.46 -50 CURVE SMOOTH",
"1702.62 67.5488 OFFCURVE",
"1735.63 180.931 OFFCURVE",
"1737.56 186.811 CURVE",
"1736 184 OFFCURVE",
"1512 272 OFFCURVE",
"1512 528 CURVE SMOOTH",
"1512 736 OFFCURVE",
"1688 832 OFFCURVE",
"1693.89 839.533 CURVE",
"1596.29 982.437 OFFCURVE",
"1444.15 1001.97 OFFCURVE",
"1389.97 1004.25 CURVE"
);
},
{
closed = 1;
nodes = (
"1308.15 1402.82 OFFCURVE",
"1206.79 1350.58 OFFCURVE",
"1146.88 1280.42 CURVE SMOOTH",
"1096 1224 OFFCURVE",
"1056 1144 OFFCURVE",
"1056 1056 CURVE SMOOTH",
"1056 1048 OFFCURVE",
"1056 1032 OFFCURVE",
"1058.62 1023.23 CURVE",
"1064 1024 OFFCURVE",
"1072 1024 OFFCURVE",
"1072 1024 CURVE SMOOTH",
"1160 1024 OFFCURVE",
"1248 1072 OFFCURVE",
"1305.2 1140.81 CURVE SMOOTH",
"1360 1200 OFFCURVE",
"1392 1288 OFFCURVE",
"1392 1376 CURVE SMOOTH",
"1391.7 1406.28 LINE"
);
}
);
width = 2048;
}
);
unicode = E083;
},
{
glyphname = uniE084;
lastChange = "2014-02-12 16:49:53 -0500";
layers = (
{
layerId = "CCC0E1AC-D470-4327-8277-0716FA3BBBFC";
name = Regular;
paths = (
{
closed = 1;
nodes = (
"1096.58 1280 OFFCURVE",
"896 1079.42 OFFCURVE",
"896 832 CURVE SMOOTH",
"896 774.924 OFFCURVE",
"906.682 720.344 OFFCURVE",
"926.141 670.141 CURVE",
"256 0 LINE",
"256 -128 LINE",
"640 -128 LINE",
"640 0 LINE",
"768 0 LINE",
"768 128 LINE",
"896 128 LINE",
"896 256 LINE",
"1024 256 LINE",
"1152 384 LINE",
"1182.14 414.141 LINE",
"1232.34 394.682 OFFCURVE",
"1286.92 384 OFFCURVE",
"1344 384 CURVE SMOOTH",
"1591.42 384 OFFCURVE",
"1792 584.576 OFFCURVE",
"1792 832 CURVE SMOOTH",
"1792 1079.42 OFFCURVE",
"1591.42 1280 OFFCURVE",
"1344 1280 CURVE SMOOTH"
);
},
{
closed = 1;
nodes = (
"1414.69 960 OFFCURVE",
"1472 902.692 OFFCURVE",
"1472 832 CURVE SMOOTH",
"1472 761.308 OFFCURVE",
"1414.69 704 OFFCURVE",
"1344 704 CURVE SMOOTH",
"1273.31 704 OFFCURVE",
"1216 761.308 OFFCURVE",
"1216 832 CURVE SMOOTH",
"1216 902.692 OFFCURVE",
"1273.31 960 OFFCURVE",
"1344 960 CURVE SMOOTH"
);
}
);
width = 2048;
}
);
unicode = E084;
},
{
glyphname = uniE085;
lastChange = "2014-02-12 16:50:36 -0500";
layers = (
{
layerId = "CCC0E1AC-D470-4327-8277-0716FA3BBBFC";
name = Regular;
paths = (
{
closed = 1;
nodes = (
"926.5 1280 LINE",
"831.625 1052.75 LINE",
"812.5 1046 OFFCURVE",
"794.125 1038.88 OFFCURVE",
"775.938 1030.25 CURVE",
"547.75 1121.94 LINE",
"412 986.188 LINE",
"505 760.062 LINE",
"496 741.5 OFFCURVE",
"488.688 722.562 OFFCURVE",
"481.75 703.062 CURVE",
"256 606.5 LINE",
"256 414.5 LINE",
"481.938 320.375 LINE",
"488.875 300.875 OFFCURVE",
"496.375 281.938 OFFCURVE",
"505.375 263.375 CURVE",
"414.062 35.75 LINE",
"549.812 -100 LINE",
"776.5 -7 LINE",
"794.688 -15 OFFCURVE",
"813.25 -22 OFFCURVE",
"832.375 -29 CURVE",
"929.5 -256 LINE",
"1121.5 -256 LINE",
"1216.56 -28 LINE",
"1234.75 -21 OFFCURVE",
"1252.75 -14 OFFCURVE",
"1270 -6 CURVE",
"1500.25 -98 LINE",
"1636 38 LINE",
"1541.5 267.125 LINE",
"1549.56 284.375 OFFCURVE",
"1556.12 301.812 OFFCURVE",
"1562.5 319.625 CURVE",
"1792 417.5 LINE",
"1792 609.5 LINE",
"1562.5 705.125 LINE",
"1556.12 723.125 OFFCURVE",
"1549.38 740.562 OFFCURVE",
"1541.12 757.625 CURVE",
"1633.75 988.25 LINE",
"1498 1124 LINE",
"1269.44 1029.88 LINE",
"1252 1038.31 OFFCURVE",
"1234.19 1045.44 OFFCURVE",
"1215.81 1052 CURVE",
"1118.5 1280 LINE"
);
},
{
closed = 1;
nodes = (
"1181.5 800 OFFCURVE",
"1310.5 671 OFFCURVE",
"1310.5 512 CURVE SMOOTH",
"1310.5 353 OFFCURVE",
"1181.5 224 OFFCURVE",
"1022.5 224 CURVE SMOOTH",
"863.5 224 OFFCURVE",
"734.5 353 OFFCURVE",
"734.5 512 CURVE SMOOTH",
"734.5 671 OFFCURVE",
"863.5 800 OFFCURVE",
"1022.5 800 CURVE SMOOTH"
);
}
);
width = 2048;
}
);
unicode = E085;
},
{
glyphname = uniE086;
lastChange = "2014-02-12 16:47:40 -0500";
layers = (
{
layerId = "CCC0E1AC-D470-4327-8277-0716FA3BBBFC";
name = Regular;
paths = (
{
closed = 1;
nodes = (
"1152 1408 LINE",
"896 1408 LINE",
"896 640 LINE",
"1152 640 LINE"
);
},
{
closed = 1;
nodes = (
"1634.05 1050.04 OFFCURVE",
"1792 799.469 OFFCURVE",
"1792 512 CURVE SMOOTH",
"1792 87.8457 OFFCURVE",
"1448.15 -256 OFFCURVE",
"1024 -256 CURVE SMOOTH",
"599.845 -256 OFFCURVE",
"256 87.8457 OFFCURVE",
"256 512 CURVE SMOOTH",
"256 799.469 OFFCURVE",
"413.947 1050.04 OFFCURVE",
"647.787 1181.69 CURVE",
"779.557 962.072 LINE",
"736.508 938.659 OFFCURVE",
"697.098 909.175 OFFCURVE",
"661.961 874.039 CURVE SMOOTH",
"614.857 826.935 OFFCURVE",
"577.904 772.153 OFFCURVE",
"552.13 711.215 CURVE SMOOTH",
"525.502 648.258 OFFCURVE",
"512 581.232 OFFCURVE",
"512 512 CURVE SMOOTH",
"512 442.768 OFFCURVE",
"525.502 375.742 OFFCURVE",
"552.13 312.785 CURVE SMOOTH",
"577.904 251.848 OFFCURVE",
"614.857 197.064 OFFCURVE",
"661.961 149.962 CURVE SMOOTH",
"709.065 102.857 OFFCURVE",
"763.847 65.9053 OFFCURVE",
"824.785 40.1309 CURVE SMOOTH",
"887.741 13.502 OFFCURVE",
"954.768 0 OFFCURVE",
"1024 0 CURVE SMOOTH",
"1093.23 0 OFFCURVE",
"1160.26 13.502 OFFCURVE",
"1223.21 40.1299 CURVE SMOOTH",
"1284.15 65.9053 OFFCURVE",
"1338.93 102.857 OFFCURVE",
"1386.04 149.962 CURVE SMOOTH",
"1433.14 197.065 OFFCURVE",
"1470.09 251.848 OFFCURVE",
"1495.87 312.785 CURVE SMOOTH",
"1522.5 375.742 OFFCURVE",
"1536 442.768 OFFCURVE",
"1536 512 CURVE SMOOTH",
"1536 581.232 OFFCURVE",
"1522.5 648.258 OFFCURVE",
"1495.87 711.215 CURVE SMOOTH",
"1470.09 772.153 OFFCURVE",
"1433.14 826.935 OFFCURVE",
"1386.04 874.038 CURVE SMOOTH",
"1350.9 909.175 OFFCURVE",
"1311.49 938.659 OFFCURVE",
"1268.44 962.072 CURVE",
"1400.21 1181.69 LINE"
);
}
);
width = 2048;
}
);
unicode = E086;
},
{
glyphname = uniE087;
lastChange = "2014-03-12 01:05:33 -0500";
layers = (
{
layerId = "CCC0E1AC-D470-4327-8277-0716FA3BBBFC";
name = Regular;
paths = (
{
closed = 1;
nodes = (
"460 1542 OFFCURVE",
"1 1084 OFFCURVE",
"1 518 CURVE SMOOTH",
"1 66 OFFCURVE",
"295 -318 OFFCURVE",
"702 -454 CURVE",
"753 -463 OFFCURVE",
"772 -431 OFFCURVE",
"772 -404 CURVE SMOOTH",
"770 -214 LINE",
"485 -276 OFFCURVE",
"425 -93 OFFCURVE",
"425 -93 CURVE",
"379 26 OFFCURVE",
"311 57 OFFCURVE",
"311 57 CURVE",
"219 121 OFFCURVE",
"318 119 OFFCURVE",
"318 119 CURVE",
"421 112 OFFCURVE",
"475 14 OFFCURVE",
"475 14 CURVE",
"567 -143 OFFCURVE",
"715 -98 OFFCURVE",
"773 -71 CURVE",
"783 -5 OFFCURVE",
"809 40 OFFCURVE",
"838 66 CURVE",
"611 91 OFFCURVE",
"372 179 OFFCURVE",
"372 572 CURVE SMOOTH",
"372 683 OFFCURVE",
"412 775 OFFCURVE",
"477 846 CURVE",
"467 872 OFFCURVE",
"432 976 OFFCURVE",
"487 1117 CURVE",
"487 1117 OFFCURVE",
"573 1145 OFFCURVE",
"769 1012 CURVE",
"851 1035 OFFCURVE",
"938 1047 OFFCURVE",
"1025 1047 CURVE SMOOTH",
"1112 1047 OFFCURVE",
"1200 1035 OFFCURVE",
"1282 1012 CURVE",
"1477 1145 OFFCURVE",
"1563 1117 OFFCURVE",
"1563 1117 CURVE",
"1619 976 OFFCURVE",
"1584 872 OFFCURVE",
"1573 846 CURVE",
"1639 775 OFFCURVE",
"1679 683 OFFCURVE",
"1679 572 CURVE SMOOTH",
"1679 178 OFFCURVE",
"1439 92 OFFCURVE",
"1211 66 CURVE",
"1248 35 OFFCURVE",
"1280 -28 OFFCURVE",
"1280 -123 CURVE SMOOTH",
"1280 -260 OFFCURVE",
"1279 -371 OFFCURVE",
"1279 -404 CURVE SMOOTH",
"1279 -432 OFFCURVE",
"1298 -463 OFFCURVE",
"1350 -453 CURVE",
"1756 -318 OFFCURVE",
"2049 66 OFFCURVE",
"2049 518 CURVE SMOOTH",
"2049 1084 OFFCURVE",
"1591 1542 OFFCURVE",
"1025 1542 CURVE SMOOTH"
);
},
{
closed = 1;
nodes = (
"489 -66 OFFCURVE",
"491 -78 OFFCURVE",
"500 -86 CURVE SMOOTH",
"509 -95 OFFCURVE",
"521 -97 OFFCURVE",
"526 -90 CURVE",
"532 -84 OFFCURVE",
"530 -72 OFFCURVE",
"521 -64 CURVE SMOOTH",
"512 -56 OFFCURVE",
"500 -54 OFFCURVE",
"494 -60 CURVE SMOOTH"
);
},
{
closed = 1;
nodes = (
"442 -4 OFFCURVE",
"442 -15 OFFCURVE",
"448 -25 CURVE SMOOTH",
"454 -34 OFFCURVE",
"465 -38 OFFCURVE",
"471 -33 CURVE SMOOTH",
"477 -29 OFFCURVE",
"477 -18 OFFCURVE",
"471 -9 CURVE SMOOTH",
"465 0 OFFCURVE",
"455 4 OFFCURVE",
"448 0 CURVE SMOOTH"
);
},
{
closed = 1;
nodes = (
"373 91 OFFCURVE",
"365 89 OFFCURVE",
"362 84 CURVE",
"360 79 OFFCURVE",
"364 72 OFFCURVE",
"372 69 CURVE SMOOTH",
"379 65 OFFCURVE",
"387 67 OFFCURVE",
"389 72 CURVE",
"392 77 OFFCURVE",
"387 84 OFFCURVE",
"380 87 CURVE SMOOTH"
);
},
{
closed = 1;
nodes = (
"402 47 OFFCURVE",
"403 37 OFFCURVE",
"410 30 CURVE SMOOTH",
"416 23 OFFCURVE",
"426 21 OFFCURVE",
"431 26 CURVE SMOOTH",
"436 30 OFFCURVE",
"434 40 OFFCURVE",
"428 47 CURVE SMOOTH",
"421 54 OFFCURVE",
"412 56 OFFCURVE",
"407 52 CURVE SMOOTH"
);
},
{
closed = 1;
nodes = (
"574 -99 OFFCURVE",
"563 -103 OFFCURVE",
"560 -111 CURVE SMOOTH",
"558 -119 OFFCURVE",
"565 -128 OFFCURVE",
"577 -132 CURVE SMOOTH",
"589 -135 OFFCURVE",
"600 -131 OFFCURVE",
"603 -123 CURVE SMOOTH",
"605 -115 OFFCURVE",
"597 -106 OFFCURVE",
"586 -102 CURVE SMOOTH"
);
},
{
closed = 1;
nodes = (
"652 -115 OFFCURVE",
"642 -122 OFFCURVE",
"642 -130 CURVE",
"643 -139 OFFCURVE",
"652 -145 OFFCURVE",
"665 -145 CURVE SMOOTH",
"677 -145 OFFCURVE",
"687 -138 OFFCURVE",
"686 -130 CURVE SMOOTH",
"686 -121 OFFCURVE",
"676 -114 OFFCURVE",
"664 -115 CURVE SMOOTH"
);
},
{
closed = 1;
nodes = (
"728 -107 OFFCURVE",
"719 -116 OFFCURVE",
"721 -124 CURVE SMOOTH",
"722 -132 OFFCURVE",
"733 -137 OFFCURVE",
"745 -135 CURVE SMOOTH",
"757 -133 OFFCURVE",
"766 -125 OFFCURVE",
"764 -116 CURVE SMOOTH",
"763 -108 OFFCURVE",
"752 -103 OFFCURVE",
"740 -105 CURVE SMOOTH"
);
}
);
width = 2048;
}
);
unicode = E087;
},
{
glyphname = uniF000;
lastChange = "2014-02-12 16:53:06 -0500";
layers = (
{
layerId = "CCC0E1AC-D470-4327-8277-0716FA3BBBFC";
name = Regular;
paths = (
{
closed = 1;
nodes = (
"128.583 638.122 LINE",
"380.544 638.122 LINE",
"380.544 -256 LINE",
"764.908 -256 LINE",
"764.908 256 LINE",
"1152 256 LINE",
"1152 -256 LINE",
"1660.54 -256 LINE",
"1660.54 638.122 LINE",
"1912.5 638.122 LINE",
"1537.54 961.424 LINE",
"1537.54 1277.53 LINE",
"1278.45 1277.53 LINE",
"1278.45 1184.82 LINE",
"1021.73 1406.16 LINE"
);
},
{
closed = 1;
nodes = (
"1052.65 135 OFFCURVE",
"1024 106.346 OFFCURVE",
"1024 71 CURVE SMOOTH",
"1024 35.6538 OFFCURVE",
"1052.65 7 OFFCURVE",
"1088 7 CURVE SMOOTH",
"1123.35 7 OFFCURVE",
"1152 35.6538 OFFCURVE",
"1152 71 CURVE SMOOTH",
"1152 106.346 OFFCURVE",
"1123.35 135 OFFCURVE",
"1088 135 CURVE SMOOTH"
);
}
);
width = 2048;
}
);
unicode = F000;
},
{
glyphname = uniF001;
lastChange = "2014-02-12 16:50:08 -0500";
layers = (
{
layerId = "CCC0E1AC-D470-4327-8277-0716FA3BBBFC";
name = Regular;
paths = (
{
closed = 1;
nodes = (
"1616 1344 OFFCURVE",
"1456 1408 OFFCURVE",
"1296 1408 CURVE SMOOTH",
"1144 1408 OFFCURVE",
"984 1344 OFFCURVE",
"861.434 1226.38 CURVE SMOOTH",
"744 1104 OFFCURVE",
"680 944 OFFCURVE",
"680 784 CURVE SMOOTH",
"680 712 OFFCURVE",
"696 632 OFFCURVE",
"722.471 561.458 CURVE",
"248.544 87.5308 LINE",
"600.477 -264 LINE",
"1074.82 209.944 LINE",
"1144 184 OFFCURVE",
"1224 168 OFFCURVE",
"1296 168 CURVE SMOOTH",
"1456 168 OFFCURVE",
"1616 232 OFFCURVE",
"1738.38 349.434 CURVE SMOOTH",
"1856 472 OFFCURVE",
"1920 632 OFFCURVE",
"1920 784 CURVE SMOOTH",
"1920 944 OFFCURVE",
"1856 1104 OFFCURVE",
"1738.38 1226.38 CURVE SMOOTH"
);
},
{
closed = 1;
nodes = (
"813.254 338.745 LINE",
"557.254 82.7446 LINE",
"466.745 173.254 LINE",
"722.745 429.254 LINE"
);
},
{
closed = 1;
nodes = (
"1688 1008 OFFCURVE",
"1728 904 OFFCURVE",
"1728 792 CURVE SMOOTH",
"1728 680 OFFCURVE",
"1688 576 OFFCURVE",
"1604.72 493.018 CURVE SMOOTH",
"1520 408 OFFCURVE",
"1416 368 OFFCURVE",
"1304 368 CURVE SMOOTH",
"1200 368 OFFCURVE",
"1088 408 OFFCURVE",
"1006.2 493.018 CURVE SMOOTH",
"920 576 OFFCURVE",
"880 680 OFFCURVE",
"880 792 CURVE SMOOTH",
"880 904 OFFCURVE",
"920 1008 OFFCURVE",
"1006.2 1091.53 CURVE SMOOTH",
"1088 1176 OFFCURVE",
"1200 1216 OFFCURVE",
"1304 1216 CURVE SMOOTH",
"1416 1216 OFFCURVE",
"1520 1176 OFFCURVE",
"1604.72 1091.53 CURVE SMOOTH"
);
},
{
closed = 1;
nodes = (
"1280 960 LINE",
"1385.87 960 OFFCURVE",
"1472 873.869 OFFCURVE",
"1472 768 CURVE",
"1600 768 LINE",
"1600 811.171 OFFCURVE",
"1591.53 853.085 OFFCURVE",
"1574.83 892.578 CURVE SMOOTH",
"1558.71 930.69 OFFCURVE",
"1535.64 964.906 OFFCURVE",
"1506.27 994.273 CURVE SMOOTH",
"1476.91 1023.64 OFFCURVE",
"1442.69 1046.71 OFFCURVE",
"1404.58 1062.83 CURVE SMOOTH",
"1365.09 1079.53 OFFCURVE",
"1323.17 1088 OFFCURVE",
"1280 1088 CURVE"
);
}
);
width = 2048;
}
);
unicode = F001;
},
{
glyphname = uniF010;
lastChange = "2014-02-12 16:54:33 -0500";
layers = (
{
layerId = "CCC0E1AC-D470-4327-8277-0716FA3BBBFC";
name = Regular;
paths = (
{
closed = 1;
nodes = (
"1408 768 LINE",
"1408 467.321 LINE SMOOTH",
"1408 411.495 OFFCURVE",
"1384.13 359.011 OFFCURVE",
"1344.66 319.536 CURVE SMOOTH",
"1305.18 280.061 OFFCURVE",
"1252.7 258.321 OFFCURVE",
"1196.87 258.321 CURVE SMOOTH",
"847.768 258.321 LINE SMOOTH",
"791.942 258.321 OFFCURVE",
"739.458 280.061 OFFCURVE",
"699.982 319.536 CURVE SMOOTH",
"660.508 359.011 OFFCURVE",
"638.768 411.495 OFFCURVE",
"638.768 467.321 CURVE SMOOTH",
"640 768 LINE",
"384 768 LINE",
"384 638.013 LINE",
"510.768 638.013 LINE",
"510.768 467.321 LINE SMOOTH",
"510.768 281.201 OFFCURVE",
"661.648 128 OFFCURVE",
"847.768 128 CURVE SMOOTH",
"896 128 LINE",
"896 -130 LINE",
"768 -130 LINE",
"768 -258 LINE",
"1280 -258 LINE",
"1280 -130 LINE",
"1152 -130 LINE",
"1152 128 LINE",
"1196.87 128 LINE SMOOTH",
"1382.99 128 OFFCURVE",
"1533.87 281.201 OFFCURVE",
"1533.87 467.321 CURVE SMOOTH",
"1533.87 638.013 LINE",
"1664 638.013 LINE",
"1664 768 LINE"
);
},
{
closed = 1;
nodes = (
"1258.89 595.372 OFFCURVE",
"1238 585.316 OFFCURVE",
"1215.63 576.252 CURVE SMOOTH",
"1169.68 557.625 OFFCURVE",
"1098.69 535.421 OFFCURVE",
"1021.5 535.421 CURVE SMOOTH",
"957.117 535.421 OFFCURVE",
"894.201 545.345 OFFCURVE",
"839.551 564.12 CURVE SMOOTH",
"814.958 572.569 OFFCURVE",
"792.468 582.606 OFFCURVE",
"772.57 593.931 CURVE",
"793.377 473.556 OFFCURVE",
"897.942 382.013 OFFCURVE",
"1023.82 382.013 CURVE SMOOTH",
"1153.7 382.013 OFFCURVE",
"1260.9 479.462 OFFCURVE",
"1276.81 605.488 CURVE"
);
},
{
closed = 1;
nodes = (
"930.798 894.013 OFFCURVE",
"959.007 865.804 OFFCURVE",
"959.007 831.006 CURVE SMOOTH",
"959.007 796.209 OFFCURVE",
"930.798 768 OFFCURVE",
"896 768 CURVE SMOOTH",
"861.203 768 OFFCURVE",
"832.994 796.209 OFFCURVE",
"832.994 831.006 CURVE SMOOTH",
"832.994 865.804 OFFCURVE",
"861.203 894.013 OFFCURVE",
"896 894.013 CURVE SMOOTH"
);
},
{
closed = 1;
nodes = (
"882.973 1279.44 OFFCURVE",
"768.794 1164.83 OFFCURVE",
"768.794 1023.46 CURVE SMOOTH",
"768.794 674.597 LINE",
"790.301 655.247 OFFCURVE",
"822.44 637.67 OFFCURVE",
"860.345 624.648 CURVE SMOOTH",
"908.383 608.144 OFFCURVE",
"964.109 599.421 OFFCURVE",
"1021.5 599.421 CURVE SMOOTH",
"1073.68 599.421 OFFCURVE",
"1134.09 612.257 OFFCURVE",
"1191.59 635.566 CURVE SMOOTH",
"1243.73 656.699 OFFCURVE",
"1272.58 677.593 OFFCURVE",
"1278.84 684.138 CURVE",
"1278.84 1023.46 LINE SMOOTH",
"1278.84 1164.83 OFFCURVE",
"1164.67 1279.44 OFFCURVE",
"1023.82 1279.44 CURVE SMOOTH"
);
},
{
closed = 1;
nodes = (
"930.798 1150.01 OFFCURVE",
"959.007 1121.8 OFFCURVE",
"959.007 1087.01 CURVE SMOOTH",
"959.007 1052.21 OFFCURVE",
"930.798 1024 OFFCURVE",
"896 1024 CURVE SMOOTH",
"861.203 1024 OFFCURVE",
"832.994 1052.21 OFFCURVE",
"832.994 1087.01 CURVE SMOOTH",
"832.994 1121.8 OFFCURVE",
"861.203 1150.01 OFFCURVE",
"896 1150.01 CURVE SMOOTH"
);
},
{
closed = 1;
nodes = (
"1186.8 894.013 OFFCURVE",
"1215.01 865.804 OFFCURVE",
"1215.01 831.006 CURVE SMOOTH",
"1215.01 796.209 OFFCURVE",
"1186.8 768 OFFCURVE",
"1152 768 CURVE SMOOTH",
"1117.2 768 OFFCURVE",
"1088.99 796.209 OFFCURVE",
"1088.99 831.006 CURVE SMOOTH",
"1088.99 865.804 OFFCURVE",
"1117.2 894.013 OFFCURVE",
"1152 894.013 CURVE SMOOTH"
);
},
{
closed = 1;
nodes = (
"1186.8 1150.01 OFFCURVE",
"1215.01 1121.8 OFFCURVE",
"1215.01 1087.01 CURVE SMOOTH",
"1215.01 1052.21 OFFCURVE",
"1186.8 1024 OFFCURVE",
"1152 1024 CURVE SMOOTH",
"1117.2 1024 OFFCURVE",
"1088.99 1052.21 OFFCURVE",
"1088.99 1087.01 CURVE SMOOTH",
"1088.99 1121.8 OFFCURVE",
"1117.2 1150.01 OFFCURVE",
"1152 1150.01 CURVE SMOOTH"
);
}
);
width = 2048;
}
);
unicode = F010;
},
{
glyphname = uniF100;
lastChange = "2014-02-12 16:54:12 -0500";
layers = (
{
layerId = "CCC0E1AC-D470-4327-8277-0716FA3BBBFC";
name = Regular;
paths = (
{
closed = 1;
nodes = (
"1357.17 1280 LINE",
"1385.5 1241.76 OFFCURVE",
"1407.54 1198.59 OFFCURVE",
"1421.76 1152 CURVE",
"1664 1152 LINE",
"1664 925.18 LINE",
"1427.5 925.18 LINE",
"1421.97 903.093 OFFCURVE",
"1414.71 881.694 OFFCURVE",
"1405.87 861.136 CURVE",
"1664 861.18 LINE",
"1664 647.124 LINE",
"1019.16 416 LINE",
"786.023 416 LINE",
"786.023 673.355 LINE",
"763.048 688.327 OFFCURVE",
"741.618 705.467 OFFCURVE",
"722.023 724.489 CURVE",
"722.023 416 LINE",
"384 416 LINE",
"384 861.18 LINE",
"627.782 861.18 LINE",
"618.947 881.725 OFFCURVE",
"611.693 903.108 OFFCURVE",
"606.171 925.18 CURVE",
"384 925.18 LINE",
"384 1152 LINE",
"611.91 1152 LINE",
"626.13 1198.59 OFFCURVE",
"648.169 1241.76 OFFCURVE",
"676.498 1280 CURVE",
"256 1280 LINE",
"256 -128 LINE",
"1792 -128 LINE",
"1792 1280 LINE"
);
},
{
closed = 1;
nodes = (
"722.023 0 LINE",
"384 0 LINE",
"384 352 LINE",
"722.023 352 LINE"
);
},
{
closed = 1;
nodes = (
"1491.06 0 LINE",
"786.023 0 LINE",
"786.023 352 LINE",
"1031.01 352 LINE",
"1240.23 427.427 LINE"
);
},
{
closed = 1;
nodes = (
"1664 0 LINE",
"1565.26 0 LINE",
"1301.55 449.382 LINE",
"1664 579.146 LINE"
);
}
);
width = 2048;
}
);
unicode = F100;
},
{
glyphname = uniF101;
lastChange = "2014-02-12 16:52:49 -0500";
layers = (
{
layerId = "CCC0E1AC-D470-4327-8277-0716FA3BBBFC";
name = Regular;
paths = (
{
closed = 1;
nodes = (
"783.047 1451.56 OFFCURVE",
"593.526 1262.04 OFFCURVE",
"593.526 1028.25 CURVE SMOOTH",
"593.526 896.659 OFFCURVE",
"653.572 779.092 OFFCURVE",
"747.759 701.453 CURVE",
"798.531 615.318 OFFCURVE",
"925.303 352 OFFCURVE",
"925.303 352 CURVE",
"981.32 230.44 OFFCURVE",
"1021.05 134.104 OFFCURVE",
"1021.05 134.104 CURVE SMOOTH",
"1021.05 134.104 OFFCURVE",
"1068.02 250.207 OFFCURVE",
"1131.45 388.481 CURVE SMOOTH",
"1169.71 470.157 LINE SMOOTH",
"1210.41 555.139 OFFCURVE",
"1254.84 641.557 OFFCURVE",
"1296.63 709.832 CURVE",
"1384.42 787.746 OFFCURVE",
"1440.14 901.489 OFFCURVE",
"1440.14 1028.25 CURVE SMOOTH",
"1440.14 1262.04 OFFCURVE",
"1250.62 1451.56 OFFCURVE",
"1016.83 1451.56 CURVE SMOOTH"
);
},
{
closed = 1;
nodes = (
"1156.52 1319.22 OFFCURVE",
"1276.07 1199.67 OFFCURVE",
"1276.07 1052.2 CURVE SMOOTH",
"1276.07 904.721 OFFCURVE",
"1156.52 785.169 OFFCURVE",
"1009.05 785.169 CURVE SMOOTH",
"861.573 785.169 OFFCURVE",
"742.021 904.721 OFFCURVE",
"742.021 1052.2 CURVE SMOOTH",
"742.021 1199.67 OFFCURVE",
"861.573 1319.22 OFFCURVE",
"1009.05 1319.22 CURVE SMOOTH"
);
},
{
closed = 1;
nodes = (
"971.912 1191.22 OFFCURVE",
"937 1176.76 OFFCURVE",
"910.741 1150.5 CURVE SMOOTH",
"884.482 1124.24 OFFCURVE",
"870.021 1089.33 OFFCURVE",
"870.021 1052.2 CURVE SMOOTH",
"870.021 1015.06 OFFCURVE",
"884.482 980.148 OFFCURVE",
"910.741 953.889 CURVE SMOOTH",
"937 927.63 OFFCURVE",
"971.912 913.169 OFFCURVE",
"1009.05 913.169 CURVE SMOOTH",
"1046.18 913.169 OFFCURVE",
"1081.1 927.63 OFFCURVE",
"1107.35 953.889 CURVE SMOOTH",
"1133.61 980.148 OFFCURVE",
"1148.07 1015.06 OFFCURVE",
"1148.07 1052.2 CURVE SMOOTH",
"1148.07 1089.33 OFFCURVE",
"1133.61 1124.24 OFFCURVE",
"1107.35 1150.5 CURVE SMOOTH",
"1081.1 1176.76 OFFCURVE",
"1046.18 1191.22 OFFCURVE",
"1009.05 1191.22 CURVE SMOOTH"
);
}
);
width = 2048;
}
);
unicode = F101;
},
{
glyphname = uniF102;
lastChange = "2014-02-12 16:53:43 -0500";
layers = (
{
layerId = "CCC0E1AC-D470-4327-8277-0716FA3BBBFC";
name = Regular;
paths = (
{
closed = 1;
nodes = (
"256 896 LINE",
"256 130.923 LINE",
"1666.14 130.923 LINE",
"1666.14 388.949 LINE",
"1795.03 388.949 LINE",
"1795.03 643.975 LINE",
"1666.14 643.975 LINE",
"1666.14 896 LINE"
);
},
{
closed = 1;
nodes = (
"1536 256 LINE",
"384 256 LINE",
"384 768 LINE",
"1536 768 LINE"
);
}
);
width = 2048;
}
);
unicode = F102;
},
{
glyphname = uniF103;
lastChange = "2014-02-12 16:54:47 -0500";
layers = (
{
layerId = "CCC0E1AC-D470-4327-8277-0716FA3BBBFC";
name = Regular;
paths = (
{
closed = 1;
nodes = (
"384 768 LINE",
"384 256 LINE",
"1536 256 LINE",
"1536 768 LINE"
);
}
);
width = 2048;
}
);
unicode = F103;
},
{
glyphname = uniF104;
lastChange = "2014-02-12 16:54:54 -0500";
layers = (
{
layerId = "CCC0E1AC-D470-4327-8277-0716FA3BBBFC";
name = Regular;
paths = (
{
closed = 1;
nodes = (
"384 768 LINE",
"384 256 LINE",
"1280 256 LINE",
"1280 768 LINE"
);
}
);
width = 2048;
}
);
unicode = F104;
},
{
glyphname = uniF105;
lastChange = "2014-02-12 16:55:06 -0500";
layers = (
{
layerId = "CCC0E1AC-D470-4327-8277-0716FA3BBBFC";
name = Regular;
paths = (
{
closed = 1;
nodes = (
"384 768 LINE",
"384 256 LINE",
"1024 256 LINE",
"1024 768 LINE"
);
}
);
width = 2048;
}
);
unicode = F105;
},
{
glyphname = uniF106;
lastChange = "2014-02-12 16:52:42 -0500";
layers = (
{
layerId = "CCC0E1AC-D470-4327-8277-0716FA3BBBFC";
name = Regular;
paths = (
{
closed = 1;
nodes = (
"384 768 LINE",
"384 256 LINE",
"640 256 LINE",
"640 768 LINE"
);
}
);
width = 2048;
}
);
unicode = F106;
},
{
glyphname = uniF108;
lastChange = "2014-02-12 19:02:29 -0500";
layers = (
{
layerId = "CCC0E1AC-D470-4327-8277-0716FA3BBBFC";
name = Regular;
paths = (
{
closed = 1;
nodes = (
"629 896 OFFCURVE",
"512 717 OFFCURVE",
"512 569 CURVE SMOOTH",
"512 547 OFFCURVE",
"516 513 OFFCURVE",
"519 502 CURVE SMOOTH",
"520 488 OFFCURVE",
"528 472 OFFCURVE",
"528 456 CURVE SMOOTH",
"528 408 OFFCURVE",
"496 384 OFFCURVE",
"452.919 362.59 CURVE SMOOTH",
"405.954 335.785 OFFCURVE",
"384 296.863 OFFCURVE",
"384 249 CURVE SMOOTH",
"384 178 OFFCURVE",
"441 121 OFFCURVE",
"512 121 CURVE SMOOTH",
"1600 121 LINE SMOOTH",
"1635.29 121 OFFCURVE",
"1664 149.71 OFFCURVE",
"1664 185 CURVE SMOOTH",
"1664 216 OFFCURVE",
"1648 232 OFFCURVE",
"1619 246 CURVE SMOOTH",
"1552 280 OFFCURVE",
"1528 304 OFFCURVE",
"1528 352 CURVE SMOOTH",
"1528 408 OFFCURVE",
"1536 392 OFFCURVE",
"1536 441 CURVE SMOOTH",
"1536 545 OFFCURVE",
"1451 640 OFFCURVE",
"1344 640 CURVE SMOOTH",
"1296 640 OFFCURVE",
"1256 608 OFFCURVE",
"1232 608 CURVE SMOOTH",
"1192 608 OFFCURVE",
"1144 640 OFFCURVE",
"1126 695 CURVE SMOOTH",
"1086 806 OFFCURVE",
"961 896 OFFCURVE",
"832 896 CURVE SMOOTH"
);
}
);
width = 2048;
}
);
unicode = F108;
},
{
glyphname = uniF109;
lastChange = "2014-02-12 19:03:12 -0500";
layers = (
{
layerId = "CCC0E1AC-D470-4327-8277-0716FA3BBBFC";
name = Regular;
paths = (
{
closed = 1;
nodes = (
"584.576 1024 OFFCURVE",
"384 816.423 OFFCURVE",
"384 569 CURVE SMOOTH",
"384 537.128 OFFCURVE",
"387.336 506.037 OFFCURVE",
"393.664 476.049 CURVE",
"311.852 433.321 OFFCURVE",
"256 347.69 OFFCURVE",
"256 249 CURVE SMOOTH",
"256 107.615 OFFCURVE",
"370.614 -7 OFFCURVE",
"512 -7 CURVE SMOOTH",
"1600 -7 LINE SMOOTH",
"1706.04 -7 OFFCURVE",
"1792 78.961 OFFCURVE",
"1792 185 CURVE SMOOTH",
"1792 271.626 OFFCURVE",
"1734.63 344.842 OFFCURVE",
"1655.81 368.75 CURVE",
"1690 516 OFFCURVE",
"1594 768 OFFCURVE",
"1344 768 CURVE SMOOTH",
"1309.1 768 OFFCURVE",
"1275.51 755.393 OFFCURVE",
"1244.07 745.065 CURVE",
"1175.66 904.96 OFFCURVE",
"1016.92 1024 OFFCURVE",
"832 1024 CURVE SMOOTH"
);
},
{
closed = 1;
nodes = (
"957 896 OFFCURVE",
"1086 808 OFFCURVE",
"1126.39 694.717 CURVE SMOOTH",
"1144 640 OFFCURVE",
"1192 608 OFFCURVE",
"1232 608 CURVE SMOOTH",
"1255 608 OFFCURVE",
"1318 640 OFFCURVE",
"1344 640 CURVE SMOOTH",
"1394.15 640 OFFCURVE",
"1441.89 619.268 OFFCURVE",
"1478.43 581.622 CURVE SMOOTH",
"1514 545 OFFCURVE",
"1536 497 OFFCURVE",
"1536 441 CURVE SMOOTH",
"1536 411 OFFCURVE",
"1528 389 OFFCURVE",
"1528 352 CURVE SMOOTH",
"1528 304 OFFCURVE",
"1552 280 OFFCURVE",
"1618.65 246.262 CURVE SMOOTH",
"1645 234 OFFCURVE",
"1664 217 OFFCURVE",
"1664 185 CURVE SMOOTH",
"1664 149.71 OFFCURVE",
"1635.29 121 OFFCURVE",
"1600 121 CURVE SMOOTH",
"512 121 LINE SMOOTH",
"441 121 OFFCURVE",
"384 178 OFFCURVE",
"384 249 CURVE SMOOTH",
"384 296.863 OFFCURVE",
"405.954 335.785 OFFCURVE",
"452.919 362.59 CURVE SMOOTH",
"496 384 OFFCURVE",
"528 408 OFFCURVE",
"528 456 CURVE SMOOTH",
"528 472 OFFCURVE",
"520 488 OFFCURVE",
"519 502 CURVE SMOOTH",
"516 513 OFFCURVE",
"512 547 OFFCURVE",
"512 569 CURVE SMOOTH",
"512 713 OFFCURVE",
"627 896 OFFCURVE",
"832 896 CURVE SMOOTH"
);
}
);
width = 2048;
}
);
unicode = F109;
},
{
glyphname = uniF110;
lastChange = "2014-02-12 19:03:34 -0500";
layers = (
{
layerId = "CCC0E1AC-D470-4327-8277-0716FA3BBBFC";
name = Regular;
paths = (
{
closed = 1;
nodes = (
"585 1024 OFFCURVE",
"384 816 OFFCURVE",
"384 569 CURVE SMOOTH",
"384 537 OFFCURVE",
"387 506 OFFCURVE",
"393.664 476.049 CURVE",
"311.852 433.321 OFFCURVE",
"256 347.69 OFFCURVE",
"256 249 CURVE SMOOTH",
"256 107.615 OFFCURVE",
"370.614 -7 OFFCURVE",
"512 -7 CURVE SMOOTH",
"1600 -7 LINE SMOOTH",
"1706.04 -7 OFFCURVE",
"1792 78.961 OFFCURVE",
"1792 185 CURVE SMOOTH",
"1792 271.626 OFFCURVE",
"1734.63 344.842 OFFCURVE",
"1655.81 368.75 CURVE",
"1690 516 OFFCURVE",
"1594 768 OFFCURVE",
"1344 768 CURVE SMOOTH",
"1309.1 768 OFFCURVE",
"1275.51 755.393 OFFCURVE",
"1244.07 745.065 CURVE",
"1175.66 904.96 OFFCURVE",
"1016.92 1024 OFFCURVE",
"832 1024 CURVE SMOOTH"
);
},
{
closed = 1;
nodes = (
"1015 736 OFFCURVE",
"872 736 CURVE SMOOTH",
"724 736 OFFCURVE",
"608 613 OFFCURVE",
"608 472 CURVE SMOOTH",
"608 312 OFFCURVE",
"749 183 OFFCURVE",
"894.246 203.021 CURVE",
"877.77 291.496 LINE",
"783 290 OFFCURVE",
"696 367 OFFCURVE",
"696 472 CURVE SMOOTH",
"696 560 OFFCURVE",
"766 648 OFFCURVE",
"872 648 CURVE SMOOTH",
"966 648 OFFCURVE",
"1050 577 OFFCURVE",
"1052.7 474.104 CURVE",
"982.492 474.344 LINE",
"1090 311.888 LINE",
"1198.61 473.603 LINE",
"1141.91 473.798 LINE",
"1140 627 OFFCURVE"
);
},
{
closed = 1;
nodes = (
"957 896 OFFCURVE",
"1086 808 OFFCURVE",
"1126.39 694.717 CURVE SMOOTH",
"1144 640 OFFCURVE",
"1192 608 OFFCURVE",
"1232 608 CURVE SMOOTH",
"1256 608 OFFCURVE",
"1319 640 OFFCURVE",
"1344 640 CURVE SMOOTH",
"1449 640 OFFCURVE",
"1536 548 OFFCURVE",
"1536 441 CURVE SMOOTH",
"1536 411 OFFCURVE",
"1528 389 OFFCURVE",
"1528 352 CURVE SMOOTH",
"1528 304 OFFCURVE",
"1552 280 OFFCURVE",
"1618.65 246.262 CURVE SMOOTH",
"1645 234 OFFCURVE",
"1664 217 OFFCURVE",
"1664 185 CURVE SMOOTH",
"1664 149.71 OFFCURVE",
"1635.29 121 OFFCURVE",
"1600 121 CURVE SMOOTH",
"512 121 LINE SMOOTH",
"441 121 OFFCURVE",
"384 178 OFFCURVE",
"384 249 CURVE SMOOTH",
"384 297 OFFCURVE",
"406 336 OFFCURVE",
"453 363 CURVE SMOOTH",
"496 384 OFFCURVE",
"528 408 OFFCURVE",
"528 456 CURVE SMOOTH",
"528 472 OFFCURVE",
"520 488 OFFCURVE",
"519 502 CURVE SMOOTH",
"516 513 OFFCURVE",
"512 547 OFFCURVE",
"512 569 CURVE SMOOTH",
"512 713 OFFCURVE",
"627 896 OFFCURVE",
"832 896 CURVE SMOOTH"
);
}
);
width = 2048;
}
);
unicode = F110;
},
{
glyphname = uniF111;
lastChange = "2014-02-12 16:54:27 -0500";
layers = (
{
layerId = "CCC0E1AC-D470-4327-8277-0716FA3BBBFC";
name = Regular;
paths = (
{
closed = 1;
nodes = (
"584.576 1024 OFFCURVE",
"384 816.423 OFFCURVE",
"384 569 CURVE SMOOTH",
"384 537.128 OFFCURVE",
"387.336 506.037 OFFCURVE",
"393.664 476.049 CURVE",
"311.852 433.321 OFFCURVE",
"256 347.69 OFFCURVE",
"256 249 CURVE SMOOTH",
"256 107.615 OFFCURVE",
"370.614 -7 OFFCURVE",
"512 -7 CURVE SMOOTH",
"1600 -7 LINE SMOOTH",
"1706.04 -7 OFFCURVE",
"1792 78.9614 OFFCURVE",
"1792 185 CURVE SMOOTH",
"1792 271.626 OFFCURVE",
"1734.63 344.842 OFFCURVE",
"1655.81 368.75 CURVE",
"1661.17 391.969 OFFCURVE",
"1664 416.154 OFFCURVE",
"1664 441 CURVE SMOOTH",
"1664 617.731 OFFCURVE",
"1520.73 768 OFFCURVE",
"1344 768 CURVE SMOOTH",
"1309.1 768 OFFCURVE",
"1275.51 755.393 OFFCURVE",
"1244.07 745.065 CURVE",
"1175.66 904.96 OFFCURVE",
"1016.92 1024 OFFCURVE",
"832 1024 CURVE SMOOTH"
);
},
{
closed = 1;
nodes = (
"894.459 896 OFFCURVE",
"955.5 876.46 OFFCURVE",
"1008.52 839.494 CURVE SMOOTH",
"1034.27 821.544 OFFCURVE",
"1057.5 799.943 OFFCURVE",
"1077.57 775.292 CURVE SMOOTH",
"1097.63 750.641 OFFCURVE",
"1118.43 716.683 OFFCURVE",
"1126.39 694.717 CURVE SMOOTH",
"1144 640 OFFCURVE",
"1192 608 OFFCURVE",
"1232 608 CURVE SMOOTH",
"1248 608 OFFCURVE",
"1264 616 OFFCURVE",
"1284.01 623.456 CURVE SMOOTH",
"1290.69 626.734 OFFCURVE",
"1291.16 625.822 OFFCURVE",
"1294.77 627.028 CURVE SMOOTH",
"1312.99 633.108 OFFCURVE",
"1333.64 640 OFFCURVE",
"1344 640 CURVE SMOOTH",
"1394.15 640 OFFCURVE",
"1441.89 619.268 OFFCURVE",
"1478.43 581.622 CURVE SMOOTH",
"1496.51 562.995 OFFCURVE",
"1510.72 541.423 OFFCURVE",
"1520.66 517.505 CURVE SMOOTH",
"1530.84 493.034 OFFCURVE",
"1536 467.293 OFFCURVE",
"1536 441 CURVE SMOOTH",
"1536 426.281 OFFCURVE",
"1534.81 418.14 OFFCURVE",
"1531.09 397.535 CURVE SMOOTH",
"1528 384 OFFCURVE",
"1528 368 OFFCURVE",
"1528 352 CURVE SMOOTH",
"1528 304 OFFCURVE",
"1552 280 OFFCURVE",
"1618.65 246.262 CURVE SMOOTH",
"1632.1 240.219 OFFCURVE",
"1643.04 234.249 OFFCURVE",
"1651.22 223.381 CURVE SMOOTH",
"1657.05 215.643 OFFCURVE",
"1664 202.702 OFFCURVE",
"1664 185 CURVE SMOOTH",
"1664 149.71 OFFCURVE",
"1635.29 121 OFFCURVE",
"1600 121 CURVE SMOOTH",
"1022 121 LINE",
"1022 435 LINE",
"1214 435 LINE",
"894 760 LINE",
"574 435 LINE",
"766 435 LINE",
"766 121 LINE",
"512 121 LINE SMOOTH",
"477.81 121 OFFCURVE",
"445.666 134.314 OFFCURVE",
"421.49 158.49 CURVE SMOOTH",
"397.315 182.666 OFFCURVE",
"384 214.81 OFFCURVE",
"384 249 CURVE SMOOTH",
"384 296.863 OFFCURVE",
"405.954 335.785 OFFCURVE",
"452.919 362.59 CURVE SMOOTH",
"496 384 OFFCURVE",
"528 408 OFFCURVE",
"528 456 CURVE SMOOTH",
"528 472 OFFCURVE",
"520 488 OFFCURVE",
"518.906 502.476 CURVE SMOOTH",
"516.253 513.062 OFFCURVE",
"512 546.577 OFFCURVE",
"512 569 CURVE SMOOTH",
"512 612.498 OFFCURVE",
"520.516 654.933 OFFCURVE",
"537.31 695.126 CURVE SMOOTH",
"553.635 734.195 OFFCURVE",
"576.977 769.394 OFFCURVE",
"606.687 799.746 CURVE SMOOTH",
"636.326 830.025 OFFCURVE",
"670.647 853.774 OFFCURVE",
"708.696 870.333 CURVE SMOOTH",
"747.83 887.364 OFFCURVE",
"789.315 896 OFFCURVE",
"832 896 CURVE SMOOTH"
);
}
);
width = 2048;
}
);
unicode = F111;
},
{
glyphname = uniF112;
lastChange = "2014-02-12 19:02:54 -0500";
layers = (
{
layerId = "CCC0E1AC-D470-4327-8277-0716FA3BBBFC";
name = Regular;
paths = (
{
closed = 1;
nodes = (
"584 1024 OFFCURVE",
"384 816 OFFCURVE",
"384 568 CURVE SMOOTH",
"384 536 OFFCURVE",
"384 504 OFFCURVE",
"392 480 CURVE",
"312 432 OFFCURVE",
"256 344 OFFCURVE",
"256 248 CURVE SMOOTH",
"256 104 OFFCURVE",
"368 -8 OFFCURVE",
"512 -8 CURVE SMOOTH",
"1600 -8 LINE SMOOTH",
"1704 -8 OFFCURVE",
"1792 80 OFFCURVE",
"1792 184 CURVE SMOOTH",
"1792 272 OFFCURVE",
"1736 344 OFFCURVE",
"1656 368 CURVE",
"1702 506 OFFCURVE",
"1586 768 OFFCURVE",
"1344 768 CURVE SMOOTH",
"1312 768 OFFCURVE",
"1272 752 OFFCURVE",
"1248 744 CURVE",
"1176 904 OFFCURVE",
"1016 1024 OFFCURVE",
"832 1024 CURVE SMOOTH"
);
},
{
closed = 1;
nodes = (
"760 480 LINE",
"568 480 LINE",
"888 160 LINE",
"1208 480 LINE",
"1016 480 LINE",
"1016 832 LINE",
"1061 802 OFFCURVE",
"1112 745 OFFCURVE",
"1128 696 CURVE SMOOTH",
"1144 640 OFFCURVE",
"1192 608 OFFCURVE",
"1232 608 CURVE SMOOTH",
"1254 608 OFFCURVE",
"1330 640 OFFCURVE",
"1344 640 CURVE SMOOTH",
"1418 640 OFFCURVE",
"1499 582 OFFCURVE",
"1520 520 CURVE SMOOTH",
"1571 367 OFFCURVE",
"1463 325 OFFCURVE",
"1616 248 CURVE SMOOTH",
"1643 234 OFFCURVE",
"1664 213 OFFCURVE",
"1664 184 CURVE SMOOTH",
"1664 152 OFFCURVE",
"1632 120 OFFCURVE",
"1600 120 CURVE SMOOTH",
"512 120 LINE SMOOTH",
"452 120 OFFCURVE",
"384 182 OFFCURVE",
"384 248 CURVE SMOOTH",
"384 296 OFFCURVE",
"408 336 OFFCURVE",
"456 360 CURVE SMOOTH",
"496 384 OFFCURVE",
"528 408 OFFCURVE",
"528 456 CURVE SMOOTH",
"528 472 OFFCURVE",
"520 488 OFFCURVE",
"520 504 CURVE SMOOTH",
"520 512 OFFCURVE",
"512 544 OFFCURVE",
"512 568 CURVE SMOOTH",
"512 616 OFFCURVE",
"520 656 OFFCURVE",
"536 696 CURVE SMOOTH",
"571 782 OFFCURVE",
"665 867 OFFCURVE",
"760 888 CURVE"
);
}
